<?xml version="1.0" encoding="utf-8" standalone="no"?>
<!DOCTYPE svg PUBLIC "-//W3C//DTD SVG 1.1//EN"
  "http://www.w3.org/Graphics/SVG/1.1/DTD/svg11.dtd">
<svg xmlns:xlink="http://www.w3.org/1999/xlink" width="838.73325pt" height="420.9075pt" viewBox="0 0 838.73325 420.9075" xmlns="http://www.w3.org/2000/svg" version="1.1">
 <metadata>
  <rdf:RDF xmlns:dc="http://purl.org/dc/elements/1.1/" xmlns:cc="http://creativecommons.org/ns#" xmlns:rdf="http://www.w3.org/1999/02/22-rdf-syntax-ns#">
   <cc:Work>
    <dc:type rdf:resource="http://purl.org/dc/dcmitype/StillImage"/>
    <dc:date>2025-09-19T21:25:54.953320</dc:date>
    <dc:format>image/svg+xml</dc:format>
    <dc:creator>
     <cc:Agent>
      <dc:title>Matplotlib v3.10.3, https://matplotlib.org/</dc:title>
     </cc:Agent>
    </dc:creator>
   </cc:Work>
  </rdf:RDF>
 </metadata>
 <defs>
  <style type="text/css">*{stroke-linejoin: round; stroke-linecap: butt}</style>
 </defs>
 <g id="figure_1">
  <g id="patch_1">
   <path d="M 0 420.9075 
L 838.73325 420.9075 
L 838.73325 0 
L 0 0 
z
" style="fill: #ffffff"/>
  </g>
  <g id="axes_1">
   <g id="line2d_1">
    <path d="M 303.097587 99.651157 
L 303.097587 204.336604 
L 173.723625 204.336604 
" clip-path="url(#p67ab16972b)" style="fill: none; stroke: #4ecdc4; stroke-width: 2; stroke-linecap: square"/>
   </g>
   <g id="line2d_2">
    <path d="M 310.646337 99.651157 
L 310.646337 227.600037 
L 173.723625 227.600037 
" clip-path="url(#p67ab16972b)" style="fill: none; stroke: #45b7d1; stroke-width: 2; stroke-linecap: square"/>
   </g>
   <g id="line2d_3">
    <path d="M 347.22874 99.651157 
L 347.22874 250.86347 
L 173.723625 250.86347 
" clip-path="url(#p67ab16972b)" style="fill: none; stroke: #96ceb4; stroke-width: 2; stroke-linecap: square"/>
   </g>
   <g id="line2d_4">
    <path d="M 355.938837 99.651157 
L 355.938837 274.126903 
L 173.723625 274.126903 
" clip-path="url(#p67ab16972b)" style="fill: none; stroke: #ffd700; stroke-width: 2; stroke-linecap: square"/>
   </g>
   <g id="line2d_5">
    <path d="M 365.810279 99.651157 
L 365.810279 297.390336 
L 173.723625 297.390336 
" clip-path="url(#p67ab16972b)" style="fill: none; stroke: #dda0dd; stroke-width: 2; stroke-linecap: square"/>
   </g>
   <g id="line2d_6">
    <path d="M 365.810279 99.651157 
L 365.810279 320.653769 
L 173.723625 320.653769 
" clip-path="url(#p67ab16972b)" style="fill: none; stroke: #98d8c8; stroke-width: 2; stroke-linecap: square"/>
   </g>
   <g id="line2d_7">
    <path d="M 374.520375 99.651157 
L 374.520375 343.917201 
L 173.723625 343.917201 
" clip-path="url(#p67ab16972b)" style="fill: none; stroke: #f7dc6f; stroke-width: 2; stroke-linecap: square"/>
   </g>
   <g id="line2d_8">
    <path d="M 411.102779 99.651157 
L 411.102779 367.180634 
L 173.723625 367.180634 
" clip-path="url(#p67ab16972b)" style="fill: none; stroke: #bb8fce; stroke-width: 2; stroke-linecap: square"/>
   </g>
   <g id="line2d_9">
    <path d="M 425.038933 99.651157 
L 425.038933 390.444067 
L 173.723625 390.444067 
" clip-path="url(#p67ab16972b)" style="fill: none; stroke: #85c1e9; stroke-width: 2; stroke-linecap: square"/>
   </g>
   <g id="line2d_10">
    <path d="M 431.426337 99.651157 
L 431.426337 367.180634 
L 680.999625 367.180634 
" clip-path="url(#p67ab16972b)" style="fill: none; stroke: #f8c471; stroke-width: 2; stroke-linecap: square"/>
   </g>
   <g id="line2d_11">
    <path d="M 445.943163 99.651157 
L 445.943163 343.917201 
L 680.999625 343.917201 
" clip-path="url(#p67ab16972b)" style="fill: none; stroke: #32cd32; stroke-width: 2; stroke-linecap: square"/>
   </g>
   <g id="line2d_12">
    <path d="M 457.556625 99.651157 
L 457.556625 320.653769 
L 680.999625 320.653769 
" clip-path="url(#p67ab16972b)" style="fill: none; stroke: #f1948a; stroke-width: 2; stroke-linecap: square"/>
   </g>
   <g id="line2d_13">
    <path d="M 513.881913 99.651157 
L 513.881913 297.390336 
L 680.999625 297.390336 
" clip-path="url(#p67ab16972b)" style="fill: none; stroke: #7fb3d3; stroke-width: 2; stroke-linecap: square"/>
   </g>
   <g id="line2d_14">
    <path d="M 516.204606 99.651157 
L 516.204606 274.126903 
L 680.999625 274.126903 
" clip-path="url(#p67ab16972b)" style="fill: none; stroke: #d7bde2; stroke-width: 2; stroke-linecap: square"/>
   </g>
   <g id="line2d_15">
    <path d="M 522.59201 99.651157 
L 522.59201 250.86347 
L 680.999625 250.86347 
" clip-path="url(#p67ab16972b)" style="fill: none; stroke: #9370db; stroke-width: 2; stroke-linecap: square"/>
   </g>
   <g id="line2d_16">
    <path d="M 548.141625 99.651157 
L 548.141625 227.600037 
L 680.999625 227.600037 
" clip-path="url(#p67ab16972b)" style="fill: none; stroke: #ffc107; stroke-width: 2; stroke-linecap: square"/>
   </g>
   <g id="line2d_17">
    <path d="M 570.207202 99.651157 
L 570.207202 204.336604 
L 680.999625 204.336604 
" clip-path="url(#p67ab16972b)" style="fill: none; stroke: #ffa500; stroke-width: 2; stroke-linecap: square"/>
   </g>
   <g id="line2d_18">
    <path d="M 185.801625 99.651157 
L 668.921625 99.651157 
" clip-path="url(#p67ab16972b)" style="fill: none; stroke: #000000; stroke-width: 2; stroke-linecap: square"/>
   </g>
   <g id="line2d_19">
    <path d="M 668.921625 93.835299 
L 668.921625 99.651157 
" clip-path="url(#p67ab16972b)" style="fill: none; stroke: #000000; stroke-width: 2; stroke-linecap: square"/>
   </g>
   <g id="line2d_20">
    <path d="M 653.824125 96.743228 
L 653.824125 99.651157 
" clip-path="url(#p67ab16972b)" style="fill: none; stroke: #000000; stroke-width: 2; stroke-linecap: square"/>
   </g>
   <g id="line2d_21">
    <path d="M 638.726625 93.835299 
L 638.726625 99.651157 
" clip-path="url(#p67ab16972b)" style="fill: none; stroke: #000000; stroke-width: 2; stroke-linecap: square"/>
   </g>
   <g id="line2d_22">
    <path d="M 623.629125 96.743228 
L 623.629125 99.651157 
" clip-path="url(#p67ab16972b)" style="fill: none; stroke: #000000; stroke-width: 2; stroke-linecap: square"/>
   </g>
   <g id="line2d_23">
    <path d="M 608.531625 93.835299 
L 608.531625 99.651157 
" clip-path="url(#p67ab16972b)" style="fill: none; stroke: #000000; stroke-width: 2; stroke-linecap: square"/>
   </g>
   <g id="line2d_24">
    <path d="M 593.434125 96.743228 
L 593.434125 99.651157 
" clip-path="url(#p67ab16972b)" style="fill: none; stroke: #000000; stroke-width: 2; stroke-linecap: square"/>
   </g>
   <g id="line2d_25">
    <path d="M 578.336625 93.835299 
L 578.336625 99.651157 
" clip-path="url(#p67ab16972b)" style="fill: none; stroke: #000000; stroke-width: 2; stroke-linecap: square"/>
   </g>
   <g id="line2d_26">
    <path d="M 563.239125 96.743228 
L 563.239125 99.651157 
" clip-path="url(#p67ab16972b)" style="fill: none; stroke: #000000; stroke-width: 2; stroke-linecap: square"/>
   </g>
   <g id="line2d_27">
    <path d="M 548.141625 93.835299 
L 548.141625 99.651157 
" clip-path="url(#p67ab16972b)" style="fill: none; stroke: #000000; stroke-width: 2; stroke-linecap: square"/>
   </g>
   <g id="line2d_28">
    <path d="M 533.044125 96.743228 
L 533.044125 99.651157 
" clip-path="url(#p67ab16972b)" style="fill: none; stroke: #000000; stroke-width: 2; stroke-linecap: square"/>
   </g>
   <g id="line2d_29">
    <path d="M 517.946625 93.835299 
L 517.946625 99.651157 
" clip-path="url(#p67ab16972b)" style="fill: none; stroke: #000000; stroke-width: 2; stroke-linecap: square"/>
   </g>
   <g id="line2d_30">
    <path d="M 502.849125 96.743228 
L 502.849125 99.651157 
" clip-path="url(#p67ab16972b)" style="fill: none; stroke: #000000; stroke-width: 2; stroke-linecap: square"/>
   </g>
   <g id="line2d_31">
    <path d="M 487.751625 93.835299 
L 487.751625 99.651157 
" clip-path="url(#p67ab16972b)" style="fill: none; stroke: #000000; stroke-width: 2; stroke-linecap: square"/>
   </g>
   <g id="line2d_32">
    <path d="M 472.654125 96.743228 
L 472.654125 99.651157 
" clip-path="url(#p67ab16972b)" style="fill: none; stroke: #000000; stroke-width: 2; stroke-linecap: square"/>
   </g>
   <g id="line2d_33">
    <path d="M 457.556625 93.835299 
L 457.556625 99.651157 
" clip-path="url(#p67ab16972b)" style="fill: none; stroke: #000000; stroke-width: 2; stroke-linecap: square"/>
   </g>
   <g id="line2d_34">
    <path d="M 442.459125 96.743228 
L 442.459125 99.651157 
" clip-path="url(#p67ab16972b)" style="fill: none; stroke: #000000; stroke-width: 2; stroke-linecap: square"/>
   </g>
   <g id="line2d_35">
    <path d="M 427.361625 93.835299 
L 427.361625 99.651157 
" clip-path="url(#p67ab16972b)" style="fill: none; stroke: #000000; stroke-width: 2; stroke-linecap: square"/>
   </g>
   <g id="line2d_36">
    <path d="M 412.264125 96.743228 
L 412.264125 99.651157 
" clip-path="url(#p67ab16972b)" style="fill: none; stroke: #000000; stroke-width: 2; stroke-linecap: square"/>
   </g>
   <g id="line2d_37">
    <path d="M 397.166625 93.835299 
L 397.166625 99.651157 
" clip-path="url(#p67ab16972b)" style="fill: none; stroke: #000000; stroke-width: 2; stroke-linecap: square"/>
   </g>
   <g id="line2d_38">
    <path d="M 382.069125 96.743228 
L 382.069125 99.651157 
" clip-path="url(#p67ab16972b)" style="fill: none; stroke: #000000; stroke-width: 2; stroke-linecap: square"/>
   </g>
   <g id="line2d_39">
    <path d="M 366.971625 93.835299 
L 366.971625 99.651157 
" clip-path="url(#p67ab16972b)" style="fill: none; stroke: #000000; stroke-width: 2; stroke-linecap: square"/>
   </g>
   <g id="line2d_40">
    <path d="M 351.874125 96.743228 
L 351.874125 99.651157 
" clip-path="url(#p67ab16972b)" style="fill: none; stroke: #000000; stroke-width: 2; stroke-linecap: square"/>
   </g>
   <g id="line2d_41">
    <path d="M 336.776625 93.835299 
L 336.776625 99.651157 
" clip-path="url(#p67ab16972b)" style="fill: none; stroke: #000000; stroke-width: 2; stroke-linecap: square"/>
   </g>
   <g id="line2d_42">
    <path d="M 321.679125 96.743228 
L 321.679125 99.651157 
" clip-path="url(#p67ab16972b)" style="fill: none; stroke: #000000; stroke-width: 2; stroke-linecap: square"/>
   </g>
   <g id="line2d_43">
    <path d="M 306.581625 93.835299 
L 306.581625 99.651157 
" clip-path="url(#p67ab16972b)" style="fill: none; stroke: #000000; stroke-width: 2; stroke-linecap: square"/>
   </g>
   <g id="line2d_44">
    <path d="M 291.484125 96.743228 
L 291.484125 99.651157 
" clip-path="url(#p67ab16972b)" style="fill: none; stroke: #000000; stroke-width: 2; stroke-linecap: square"/>
   </g>
   <g id="line2d_45">
    <path d="M 276.386625 93.835299 
L 276.386625 99.651157 
" clip-path="url(#p67ab16972b)" style="fill: none; stroke: #000000; stroke-width: 2; stroke-linecap: square"/>
   </g>
   <g id="line2d_46">
    <path d="M 261.289125 96.743228 
L 261.289125 99.651157 
" clip-path="url(#p67ab16972b)" style="fill: none; stroke: #000000; stroke-width: 2; stroke-linecap: square"/>
   </g>
   <g id="line2d_47">
    <path d="M 246.191625 93.835299 
L 246.191625 99.651157 
" clip-path="url(#p67ab16972b)" style="fill: none; stroke: #000000; stroke-width: 2; stroke-linecap: square"/>
   </g>
   <g id="line2d_48">
    <path d="M 231.094125 96.743228 
L 231.094125 99.651157 
" clip-path="url(#p67ab16972b)" style="fill: none; stroke: #000000; stroke-width: 2; stroke-linecap: square"/>
   </g>
   <g id="line2d_49">
    <path d="M 215.996625 93.835299 
L 215.996625 99.651157 
" clip-path="url(#p67ab16972b)" style="fill: none; stroke: #000000; stroke-width: 2; stroke-linecap: square"/>
   </g>
   <g id="line2d_50">
    <path d="M 200.899125 96.743228 
L 200.899125 99.651157 
" clip-path="url(#p67ab16972b)" style="fill: none; stroke: #000000; stroke-width: 2; stroke-linecap: square"/>
   </g>
   <g id="line2d_51">
    <path d="M 185.801625 93.835299 
L 185.801625 99.651157 
" clip-path="url(#p67ab16972b)" style="fill: none; stroke: #000000; stroke-width: 2; stroke-linecap: square"/>
   </g>
   <g id="line2d_52">
    <path d="M 185.801625 53.124291 
L 311.244806 53.124291 
" clip-path="url(#p67ab16972b)" style="fill: none; stroke: #000000; stroke-width: 2; stroke-linecap: square"/>
   </g>
   <g id="line2d_53">
    <path d="M 185.801625 58.940149 
L 185.801625 47.308433 
" clip-path="url(#p67ab16972b)" style="fill: none; stroke: #000000; stroke-width: 2; stroke-linecap: square"/>
   </g>
   <g id="line2d_54">
    <path d="M 311.244806 58.940149 
L 311.244806 47.308433 
" clip-path="url(#p67ab16972b)" style="fill: none; stroke: #000000; stroke-width: 2; stroke-linecap: square"/>
   </g>
   <g id="line2d_55">
    <path d="M 297.058587 122.91459 
L 431.077933 122.91459 
" clip-path="url(#p67ab16972b)" style="fill: none; stroke: #000000; stroke-width: 2; stroke-linecap: square"/>
   </g>
   <g id="line2d_56">
    <path d="M 304.607337 134.546306 
L 437.465337 134.546306 
" clip-path="url(#p67ab16972b)" style="fill: none; stroke: #000000; stroke-width: 2; stroke-linecap: square"/>
   </g>
   <g id="line2d_57">
    <path d="M 341.18974 146.178022 
L 463.595625 146.178022 
" clip-path="url(#p67ab16972b)" style="fill: none; stroke: #000000; stroke-width: 2; stroke-linecap: square"/>
   </g>
   <g id="line2d_58">
    <path d="M 405.063779 157.809739 
L 528.63101 157.809739 
" clip-path="url(#p67ab16972b)" style="fill: none; stroke: #000000; stroke-width: 2; stroke-linecap: square"/>
   </g>
   <g id="line2d_59">
    <path d="M 418.999933 169.441455 
L 554.180625 169.441455 
" clip-path="url(#p67ab16972b)" style="fill: none; stroke: #000000; stroke-width: 2; stroke-linecap: square"/>
   </g>
   <g id="line2d_60">
    <path d="M 439.904163 181.073172 
L 576.246202 181.073172 
" clip-path="url(#p67ab16972b)" style="fill: none; stroke: #000000; stroke-width: 2; stroke-linecap: square"/>
   </g>
   <g id="text_1">
    <!-- 1 -->
    <g transform="translate(665.921625 85.452565) scale(0.12 -0.12)">
     <defs>
      <path id="TimesNewRomanPSMT-31" d="M 750 3822 
L 1781 4325 
L 1884 4325 
L 1884 747 
Q 1884 391 1914 303 
Q 1944 216 2037 169 
Q 2131 122 2419 116 
L 2419 0 
L 825 0 
L 825 116 
Q 1125 122 1212 167 
Q 1300 213 1334 289 
Q 1369 366 1369 747 
L 1369 3034 
Q 1369 3497 1338 3628 
Q 1316 3728 1258 3775 
Q 1200 3822 1119 3822 
Q 1003 3822 797 3725 
L 750 3822 
z
" transform="scale(0.015625)"/>
     </defs>
     <use xlink:href="#TimesNewRomanPSMT-31"/>
    </g>
   </g>
   <g id="text_2">
    <!-- 2 -->
    <g transform="translate(635.726625 85.452565) scale(0.12 -0.12)">
     <defs>
      <path id="TimesNewRomanPSMT-32" d="M 2934 816 
L 2638 0 
L 138 0 
L 138 116 
Q 1241 1122 1691 1759 
Q 2141 2397 2141 2925 
Q 2141 3328 1894 3587 
Q 1647 3847 1303 3847 
Q 991 3847 742 3664 
Q 494 3481 375 3128 
L 259 3128 
Q 338 3706 661 4015 
Q 984 4325 1469 4325 
Q 1984 4325 2329 3994 
Q 2675 3663 2675 3213 
Q 2675 2891 2525 2569 
Q 2294 2063 1775 1497 
Q 997 647 803 472 
L 1909 472 
Q 2247 472 2383 497 
Q 2519 522 2628 598 
Q 2738 675 2819 816 
L 2934 816 
z
" transform="scale(0.015625)"/>
     </defs>
     <use xlink:href="#TimesNewRomanPSMT-32"/>
    </g>
   </g>
   <g id="text_3">
    <!-- 3 -->
    <g transform="translate(605.531625 85.452565) scale(0.12 -0.12)">
     <defs>
      <path id="TimesNewRomanPSMT-33" d="M 325 3431 
Q 506 3859 782 4092 
Q 1059 4325 1472 4325 
Q 1981 4325 2253 3994 
Q 2459 3747 2459 3466 
Q 2459 3003 1878 2509 
Q 2269 2356 2469 2072 
Q 2669 1788 2669 1403 
Q 2669 853 2319 450 
Q 1863 -75 997 -75 
Q 569 -75 414 31 
Q 259 138 259 259 
Q 259 350 332 419 
Q 406 488 509 488 
Q 588 488 669 463 
Q 722 447 909 348 
Q 1097 250 1169 231 
Q 1284 197 1416 197 
Q 1734 197 1970 444 
Q 2206 691 2206 1028 
Q 2206 1275 2097 1509 
Q 2016 1684 1919 1775 
Q 1784 1900 1550 2001 
Q 1316 2103 1072 2103 
L 972 2103 
L 972 2197 
Q 1219 2228 1467 2375 
Q 1716 2522 1828 2728 
Q 1941 2934 1941 3181 
Q 1941 3503 1739 3701 
Q 1538 3900 1238 3900 
Q 753 3900 428 3381 
L 325 3431 
z
" transform="scale(0.015625)"/>
     </defs>
     <use xlink:href="#TimesNewRomanPSMT-33"/>
    </g>
   </g>
   <g id="text_4">
    <!-- 4 -->
    <g transform="translate(575.336625 85.452565) scale(0.12 -0.12)">
     <defs>
      <path id="TimesNewRomanPSMT-34" d="M 2978 1563 
L 2978 1119 
L 2409 1119 
L 2409 0 
L 1894 0 
L 1894 1119 
L 100 1119 
L 100 1519 
L 2066 4325 
L 2409 4325 
L 2409 1563 
L 2978 1563 
z
M 1894 1563 
L 1894 3666 
L 406 1563 
L 1894 1563 
z
" transform="scale(0.015625)"/>
     </defs>
     <use xlink:href="#TimesNewRomanPSMT-34"/>
    </g>
   </g>
   <g id="text_5">
    <!-- 5 -->
    <g transform="translate(545.141625 85.452565) scale(0.12 -0.12)">
     <defs>
      <path id="TimesNewRomanPSMT-35" d="M 2778 4238 
L 2534 3706 
L 1259 3706 
L 981 3138 
Q 1809 3016 2294 2522 
Q 2709 2097 2709 1522 
Q 2709 1188 2573 903 
Q 2438 619 2231 419 
Q 2025 219 1772 97 
Q 1413 -75 1034 -75 
Q 653 -75 479 54 
Q 306 184 306 341 
Q 306 428 378 495 
Q 450 563 559 563 
Q 641 563 702 538 
Q 763 513 909 409 
Q 1144 247 1384 247 
Q 1750 247 2026 523 
Q 2303 800 2303 1197 
Q 2303 1581 2056 1914 
Q 1809 2247 1375 2428 
Q 1034 2569 447 2591 
L 1259 4238 
L 2778 4238 
z
" transform="scale(0.015625)"/>
     </defs>
     <use xlink:href="#TimesNewRomanPSMT-35"/>
    </g>
   </g>
   <g id="text_6">
    <!-- 6 -->
    <g transform="translate(514.946625 85.452565) scale(0.12 -0.12)">
     <defs>
      <path id="TimesNewRomanPSMT-36" d="M 2869 4325 
L 2869 4209 
Q 2456 4169 2195 4045 
Q 1934 3922 1679 3669 
Q 1425 3416 1258 3105 
Q 1091 2794 978 2366 
Q 1428 2675 1881 2675 
Q 2316 2675 2634 2325 
Q 2953 1975 2953 1425 
Q 2953 894 2631 456 
Q 2244 -75 1606 -75 
Q 1172 -75 869 213 
Q 275 772 275 1663 
Q 275 2231 503 2743 
Q 731 3256 1154 3653 
Q 1578 4050 1965 4187 
Q 2353 4325 2688 4325 
L 2869 4325 
z
M 925 2138 
Q 869 1716 869 1456 
Q 869 1156 980 804 
Q 1091 453 1309 247 
Q 1469 100 1697 100 
Q 1969 100 2183 356 
Q 2397 613 2397 1088 
Q 2397 1622 2184 2012 
Q 1972 2403 1581 2403 
Q 1463 2403 1327 2353 
Q 1191 2303 925 2138 
z
" transform="scale(0.015625)"/>
     </defs>
     <use xlink:href="#TimesNewRomanPSMT-36"/>
    </g>
   </g>
   <g id="text_7">
    <!-- 7 -->
    <g transform="translate(484.751625 85.452565) scale(0.12 -0.12)">
     <defs>
      <path id="TimesNewRomanPSMT-37" d="M 644 4238 
L 2916 4238 
L 2916 4119 
L 1503 -88 
L 1153 -88 
L 2419 3728 
L 1253 3728 
Q 900 3728 750 3644 
Q 488 3500 328 3200 
L 238 3234 
L 644 4238 
z
" transform="scale(0.015625)"/>
     </defs>
     <use xlink:href="#TimesNewRomanPSMT-37"/>
    </g>
   </g>
   <g id="text_8">
    <!-- 8 -->
    <g transform="translate(454.556625 85.452565) scale(0.12 -0.12)">
     <defs>
      <path id="TimesNewRomanPSMT-38" d="M 1228 2134 
Q 725 2547 579 2797 
Q 434 3047 434 3316 
Q 434 3728 753 4026 
Q 1072 4325 1600 4325 
Q 2113 4325 2425 4047 
Q 2738 3769 2738 3413 
Q 2738 3175 2569 2928 
Q 2400 2681 1866 2347 
Q 2416 1922 2594 1678 
Q 2831 1359 2831 1006 
Q 2831 559 2490 242 
Q 2150 -75 1597 -75 
Q 994 -75 656 303 
Q 388 606 388 966 
Q 388 1247 577 1523 
Q 766 1800 1228 2134 
z
M 1719 2469 
Q 2094 2806 2194 3001 
Q 2294 3197 2294 3444 
Q 2294 3772 2109 3958 
Q 1925 4144 1606 4144 
Q 1288 4144 1088 3959 
Q 888 3775 888 3528 
Q 888 3366 970 3203 
Q 1053 3041 1206 2894 
L 1719 2469 
z
M 1375 2016 
Q 1116 1797 991 1539 
Q 866 1281 866 981 
Q 866 578 1086 336 
Q 1306 94 1647 94 
Q 1984 94 2187 284 
Q 2391 475 2391 747 
Q 2391 972 2272 1150 
Q 2050 1481 1375 2016 
z
" transform="scale(0.015625)"/>
     </defs>
     <use xlink:href="#TimesNewRomanPSMT-38"/>
    </g>
   </g>
   <g id="text_9">
    <!-- 9 -->
    <g transform="translate(424.361625 85.452565) scale(0.12 -0.12)">
     <defs>
      <path id="TimesNewRomanPSMT-39" d="M 338 -88 
L 338 28 
Q 744 34 1094 217 
Q 1444 400 1770 856 
Q 2097 1313 2225 1859 
Q 1734 1544 1338 1544 
Q 891 1544 572 1889 
Q 253 2234 253 2806 
Q 253 3363 572 3797 
Q 956 4325 1575 4325 
Q 2097 4325 2469 3894 
Q 2925 3359 2925 2575 
Q 2925 1869 2578 1258 
Q 2231 647 1613 244 
Q 1109 -88 516 -88 
L 338 -88 
z
M 2275 2091 
Q 2331 2497 2331 2741 
Q 2331 3044 2228 3395 
Q 2125 3747 1936 3934 
Q 1747 4122 1506 4122 
Q 1228 4122 1018 3872 
Q 809 3622 809 3128 
Q 809 2469 1088 2097 
Q 1291 1828 1588 1828 
Q 1731 1828 1928 1897 
Q 2125 1966 2275 2091 
z
" transform="scale(0.015625)"/>
     </defs>
     <use xlink:href="#TimesNewRomanPSMT-39"/>
    </g>
   </g>
   <g id="text_10">
    <!-- 10 -->
    <g transform="translate(391.166625 85.452565) scale(0.12 -0.12)">
     <defs>
      <path id="TimesNewRomanPSMT-30" d="M 231 2094 
Q 231 2819 450 3342 
Q 669 3866 1031 4122 
Q 1313 4325 1613 4325 
Q 2100 4325 2488 3828 
Q 2972 3213 2972 2159 
Q 2972 1422 2759 906 
Q 2547 391 2217 158 
Q 1888 -75 1581 -75 
Q 975 -75 572 641 
Q 231 1244 231 2094 
z
M 844 2016 
Q 844 1141 1059 588 
Q 1238 122 1591 122 
Q 1759 122 1940 273 
Q 2122 425 2216 781 
Q 2359 1319 2359 2297 
Q 2359 3022 2209 3506 
Q 2097 3866 1919 4016 
Q 1791 4119 1609 4119 
Q 1397 4119 1231 3928 
Q 1006 3669 925 3112 
Q 844 2556 844 2016 
z
" transform="scale(0.015625)"/>
     </defs>
     <use xlink:href="#TimesNewRomanPSMT-31"/>
     <use xlink:href="#TimesNewRomanPSMT-30" transform="translate(50 0)"/>
    </g>
   </g>
   <g id="text_11">
    <!-- 11 -->
    <g transform="translate(361.196625 85.452565) scale(0.12 -0.12)">
     <use xlink:href="#TimesNewRomanPSMT-31"/>
     <use xlink:href="#TimesNewRomanPSMT-31" transform="translate(46.25 0)"/>
    </g>
   </g>
   <g id="text_12">
    <!-- 12 -->
    <g transform="translate(330.776625 85.452565) scale(0.12 -0.12)">
     <use xlink:href="#TimesNewRomanPSMT-31"/>
     <use xlink:href="#TimesNewRomanPSMT-32" transform="translate(50 0)"/>
    </g>
   </g>
   <g id="text_13">
    <!-- 13 -->
    <g transform="translate(300.581625 85.452565) scale(0.12 -0.12)">
     <use xlink:href="#TimesNewRomanPSMT-31"/>
     <use xlink:href="#TimesNewRomanPSMT-33" transform="translate(50 0)"/>
    </g>
   </g>
   <g id="text_14">
    <!-- 14 -->
    <g transform="translate(270.386625 85.452565) scale(0.12 -0.12)">
     <use xlink:href="#TimesNewRomanPSMT-31"/>
     <use xlink:href="#TimesNewRomanPSMT-34" transform="translate(50 0)"/>
    </g>
   </g>
   <g id="text_15">
    <!-- 15 -->
    <g transform="translate(240.191625 85.452565) scale(0.12 -0.12)">
     <use xlink:href="#TimesNewRomanPSMT-31"/>
     <use xlink:href="#TimesNewRomanPSMT-35" transform="translate(50 0)"/>
    </g>
   </g>
   <g id="text_16">
    <!-- 16 -->
    <g transform="translate(209.996625 85.452565) scale(0.12 -0.12)">
     <use xlink:href="#TimesNewRomanPSMT-31"/>
     <use xlink:href="#TimesNewRomanPSMT-36" transform="translate(50 0)"/>
    </g>
   </g>
   <g id="text_17">
    <!-- 17 -->
    <g transform="translate(179.801625 85.452565) scale(0.12 -0.12)">
     <use xlink:href="#TimesNewRomanPSMT-31"/>
     <use xlink:href="#TimesNewRomanPSMT-37" transform="translate(50 0)"/>
    </g>
   </g>
   <g id="text_18">
    <!-- DIS-AD (Avg Rank: 13.12) -->
    <g style="fill: #4ecdc4" transform="translate(24.526875 207.105042) scale(0.12 -0.12)">
     <defs>
      <path id="TimesNewRomanPS-BoldMT-44" d="M 84 0 
L 84 116 
L 225 116 
Q 409 116 507 173 
Q 606 231 653 331 
Q 681 397 681 725 
L 681 3513 
Q 681 3838 647 3919 
Q 613 4000 508 4061 
Q 403 4122 225 4122 
L 84 4122 
L 84 4238 
L 1981 4238 
Q 2741 4238 3203 4031 
Q 3769 3778 4061 3265 
Q 4353 2753 4353 2106 
Q 4353 1659 4209 1282 
Q 4066 906 3837 661 
Q 3609 416 3311 267 
Q 3013 119 2581 38 
Q 2391 0 1981 0 
L 84 0 
z
M 1700 3997 
L 1700 691 
Q 1700 428 1725 368 
Q 1750 309 1809 278 
Q 1894 231 2053 231 
Q 2575 231 2850 588 
Q 3225 1069 3225 2081 
Q 3225 2897 2969 3384 
Q 2766 3766 2447 3903 
Q 2222 4000 1700 3997 
z
" transform="scale(0.015625)"/>
      <path id="TimesNewRomanPS-BoldMT-49" d="M 2344 116 
L 2344 0 
L 128 0 
L 128 116 
L 269 116 
Q 453 116 566 181 
Q 647 225 691 331 
Q 725 406 725 725 
L 725 3513 
Q 725 3838 690 3919 
Q 656 4000 551 4061 
Q 447 4122 269 4122 
L 128 4122 
L 128 4238 
L 2344 4238 
L 2344 4122 
L 2203 4122 
Q 2019 4122 1906 4056 
Q 1825 4013 1778 3906 
Q 1744 3831 1744 3513 
L 1744 725 
Q 1744 400 1780 319 
Q 1816 238 1920 177 
Q 2025 116 2203 116 
L 2344 116 
z
" transform="scale(0.015625)"/>
      <path id="TimesNewRomanPS-BoldMT-53" d="M 3006 4334 
L 3041 2922 
L 2913 2922 
Q 2822 3453 2467 3776 
Q 2113 4100 1700 4100 
Q 1381 4100 1195 3929 
Q 1009 3759 1009 3538 
Q 1009 3397 1075 3288 
Q 1166 3141 1366 2997 
Q 1513 2894 2044 2631 
Q 2788 2266 3047 1941 
Q 3303 1616 3303 1197 
Q 3303 666 2889 283 
Q 2475 -100 1838 -100 
Q 1638 -100 1459 -59 
Q 1281 -19 1013 94 
Q 863 156 766 156 
Q 684 156 593 93 
Q 503 31 447 -97 
L 331 -97 
L 331 1503 
L 447 1503 
Q 584 828 976 473 
Q 1369 119 1822 119 
Q 2172 119 2380 309 
Q 2588 500 2588 753 
Q 2588 903 2508 1043 
Q 2428 1184 2265 1311 
Q 2103 1438 1691 1641 
Q 1113 1925 859 2125 
Q 606 2325 470 2572 
Q 334 2819 334 3116 
Q 334 3622 706 3978 
Q 1078 4334 1644 4334 
Q 1850 4334 2044 4284 
Q 2191 4247 2402 4145 
Q 2613 4044 2697 4044 
Q 2778 4044 2825 4094 
Q 2872 4144 2913 4334 
L 3006 4334 
z
" transform="scale(0.015625)"/>
      <path id="TimesNewRomanPS-BoldMT-2d" d="M 1978 1147 
L 156 1147 
L 156 1794 
L 1978 1794 
L 1978 1147 
z
" transform="scale(0.015625)"/>
      <path id="TimesNewRomanPS-BoldMT-41" d="M 2663 1206 
L 1166 1206 
L 988 794 
Q 900 588 900 453 
Q 900 275 1044 191 
Q 1128 141 1459 116 
L 1459 0 
L 50 0 
L 50 116 
Q 278 150 425 304 
Q 572 459 788 944 
L 2303 4325 
L 2363 4325 
L 3891 850 
Q 4109 356 4250 228 
Q 4356 131 4550 116 
L 4550 0 
L 2500 0 
L 2500 116 
L 2584 116 
Q 2831 116 2931 184 
Q 3000 234 3000 328 
Q 3000 384 2981 444 
Q 2975 472 2888 678 
L 2663 1206 
z
M 2556 1438 
L 1925 2897 
L 1275 1438 
L 2556 1438 
z
" transform="scale(0.015625)"/>
      <path id="TimesNewRomanPS-BoldMT-20" transform="scale(0.015625)"/>
      <path id="TimesNewRomanPS-BoldMT-28" d="M 2056 4334 
L 2056 4191 
Q 1731 3978 1578 3775 
Q 1366 3494 1247 3053 
Q 1097 2506 1097 1525 
Q 1097 600 1233 87 
Q 1369 -425 1603 -741 
Q 1766 -959 2056 -1125 
L 2056 -1281 
Q 1303 -1028 779 -248 
Q 256 531 256 1544 
Q 256 2544 778 3314 
Q 1300 4084 2056 4334 
z
" transform="scale(0.015625)"/>
      <path id="TimesNewRomanPS-BoldMT-76" d="M 1534 -88 
L 550 2178 
Q 372 2588 272 2697 
Q 200 2778 59 2806 
L 59 2922 
L 1613 2922 
L 1613 2806 
Q 1466 2806 1413 2753 
Q 1338 2684 1338 2591 
Q 1338 2475 1475 2156 
L 1956 1059 
L 2341 2006 
Q 2506 2413 2506 2581 
Q 2506 2678 2436 2739 
Q 2366 2800 2188 2806 
L 2188 2922 
L 3144 2922 
L 3144 2806 
Q 3006 2788 2918 2703 
Q 2831 2619 2656 2206 
L 1681 -88 
L 1534 -88 
z
" transform="scale(0.015625)"/>
      <path id="TimesNewRomanPS-BoldMT-67" d="M 2091 2888 
L 3075 2888 
L 3075 2544 
L 2516 2544 
Q 2669 2391 2728 2266 
Q 2803 2097 2803 1913 
Q 2803 1600 2629 1370 
Q 2456 1141 2157 1011 
Q 1859 881 1628 881 
Q 1609 881 1253 897 
Q 1113 897 1017 805 
Q 922 713 922 584 
Q 922 472 1008 400 
Q 1094 328 1288 328 
L 1828 334 
Q 2484 334 2731 191 
Q 3084 -9 3084 -425 
Q 3084 -691 2921 -908 
Q 2759 -1125 2494 -1228 
Q 2091 -1381 1566 -1381 
Q 1172 -1381 847 -1304 
Q 522 -1228 381 -1092 
Q 241 -956 241 -806 
Q 241 -663 348 -548 
Q 456 -434 750 -356 
Q 344 -156 344 200 
Q 344 416 509 619 
Q 675 822 1034 972 
Q 616 1125 428 1375 
Q 241 1625 241 1953 
Q 241 2381 591 2695 
Q 941 3009 1491 3009 
Q 1781 3009 2091 2888 
z
M 1550 2816 
Q 1369 2816 1244 2633 
Q 1119 2450 1119 1875 
Q 1119 1409 1242 1236 
Q 1366 1063 1534 1063 
Q 1722 1063 1847 1234 
Q 1972 1406 1972 1903 
Q 1972 2463 1831 2666 
Q 1731 2816 1550 2816 
z
M 1366 -431 
Q 1047 -431 944 -484 
Q 766 -581 766 -747 
Q 766 -906 950 -1036 
Q 1134 -1166 1644 -1166 
Q 2078 -1166 2326 -1050 
Q 2575 -934 2575 -725 
Q 2575 -647 2528 -594 
Q 2444 -500 2273 -465 
Q 2103 -431 1366 -431 
z
" transform="scale(0.015625)"/>
      <path id="TimesNewRomanPS-BoldMT-52" d="M 1700 1931 
L 1700 744 
Q 1700 400 1742 311 
Q 1784 222 1890 169 
Q 1997 116 2288 116 
L 2288 0 
L 119 0 
L 119 116 
Q 413 116 517 170 
Q 622 225 664 312 
Q 706 400 706 744 
L 706 3494 
Q 706 3838 664 3927 
Q 622 4016 515 4069 
Q 409 4122 119 4122 
L 119 4238 
L 2088 4238 
Q 2856 4238 3212 4131 
Q 3569 4025 3794 3739 
Q 4019 3453 4019 3069 
Q 4019 2600 3681 2294 
Q 3466 2100 3078 2003 
L 4097 569 
Q 4297 291 4381 222 
Q 4509 125 4678 116 
L 4678 0 
L 3344 0 
L 1978 1931 
L 1700 1931 
z
M 1700 4009 
L 1700 2153 
L 1878 2153 
Q 2313 2153 2528 2233 
Q 2744 2313 2867 2520 
Q 2991 2728 2991 3063 
Q 2991 3547 2764 3778 
Q 2538 4009 2034 4009 
L 1700 4009 
z
" transform="scale(0.015625)"/>
      <path id="TimesNewRomanPS-BoldMT-61" d="M 1828 431 
Q 1294 -41 869 -41 
Q 619 -41 453 123 
Q 288 288 288 534 
Q 288 869 575 1136 
Q 863 1403 1828 1847 
L 1828 2141 
Q 1828 2472 1792 2558 
Q 1756 2644 1656 2708 
Q 1556 2772 1431 2772 
Q 1228 2772 1097 2681 
Q 1016 2625 1016 2550 
Q 1016 2484 1103 2388 
Q 1222 2253 1222 2128 
Q 1222 1975 1108 1867 
Q 994 1759 809 1759 
Q 613 1759 480 1878 
Q 347 1997 347 2156 
Q 347 2381 525 2586 
Q 703 2791 1022 2900 
Q 1341 3009 1684 3009 
Q 2100 3009 2342 2832 
Q 2584 2656 2656 2450 
Q 2700 2319 2700 1847 
L 2700 713 
Q 2700 513 2715 461 
Q 2731 409 2762 384 
Q 2794 359 2834 359 
Q 2916 359 3000 475 
L 3094 400 
Q 2938 169 2770 64 
Q 2603 -41 2391 -41 
Q 2141 -41 2000 76 
Q 1859 194 1828 431 
z
M 1828 659 
L 1828 1638 
Q 1450 1416 1266 1163 
Q 1144 994 1144 822 
Q 1144 678 1247 569 
Q 1325 484 1466 484 
Q 1622 484 1828 659 
z
" transform="scale(0.015625)"/>
      <path id="TimesNewRomanPS-BoldMT-6e" d="M 1409 2922 
L 1409 2544 
Q 1634 2788 1840 2898 
Q 2047 3009 2284 3009 
Q 2569 3009 2756 2851 
Q 2944 2694 3006 2459 
Q 3056 2281 3056 1775 
L 3056 638 
Q 3056 300 3117 217 
Q 3178 134 3372 113 
L 3372 0 
L 1894 0 
L 1894 113 
Q 2059 134 2131 250 
Q 2181 328 2181 638 
L 2181 1938 
Q 2181 2297 2153 2390 
Q 2125 2484 2058 2536 
Q 1991 2588 1909 2588 
Q 1641 2588 1409 2203 
L 1409 638 
Q 1409 309 1470 221 
Q 1531 134 1697 113 
L 1697 0 
L 219 0 
L 219 113 
Q 403 131 481 231 
Q 534 300 534 638 
L 534 2288 
Q 534 2619 473 2700 
Q 413 2781 219 2806 
L 219 2922 
L 1409 2922 
z
" transform="scale(0.015625)"/>
      <path id="TimesNewRomanPS-BoldMT-6b" d="M 1403 4238 
L 1403 1450 
L 2081 2116 
Q 2291 2319 2342 2409 
Q 2394 2500 2394 2584 
Q 2394 2669 2325 2725 
Q 2256 2781 2056 2806 
L 2056 2922 
L 3366 2922 
L 3366 2806 
Q 3178 2797 3037 2717 
Q 2897 2638 2488 2238 
L 2169 1925 
L 2856 919 
Q 3272 306 3350 231 
Q 3456 125 3619 113 
L 3619 0 
L 2109 0 
L 2109 113 
Q 2209 113 2254 150 
Q 2300 188 2300 231 
Q 2300 303 2169 497 
L 1591 1344 
L 1403 1159 
L 1403 634 
Q 1403 300 1465 217 
Q 1528 134 1722 113 
L 1722 0 
L 213 0 
L 213 113 
Q 397 131 475 231 
Q 528 300 528 634 
L 528 3603 
Q 528 3934 467 4015 
Q 406 4097 213 4122 
L 213 4238 
L 1403 4238 
z
" transform="scale(0.015625)"/>
      <path id="TimesNewRomanPS-BoldMT-3a" d="M 1069 3006 
Q 1284 3006 1436 2854 
Q 1588 2703 1588 2488 
Q 1588 2272 1436 2120 
Q 1284 1969 1069 1969 
Q 853 1969 701 2120 
Q 550 2272 550 2488 
Q 550 2703 701 2854 
Q 853 3006 1069 3006 
z
M 1066 963 
Q 1284 963 1436 809 
Q 1588 656 1588 441 
Q 1588 225 1434 73 
Q 1281 -78 1066 -78 
Q 850 -78 698 73 
Q 547 225 547 441 
Q 547 656 698 809 
Q 850 963 1066 963 
z
" transform="scale(0.015625)"/>
      <path id="TimesNewRomanPS-BoldMT-31" d="M 2084 4325 
L 2084 859 
Q 2084 469 2118 361 
Q 2153 253 2262 184 
Q 2372 116 2613 116 
L 2709 116 
L 2709 0 
L 478 0 
L 478 116 
L 591 116 
Q 863 116 978 178 
Q 1094 241 1134 350 
Q 1175 459 1175 859 
L 1175 3056 
Q 1175 3350 1147 3423 
Q 1119 3497 1042 3548 
Q 966 3600 866 3600 
Q 706 3600 478 3500 
L 422 3613 
L 1981 4325 
L 2084 4325 
z
" transform="scale(0.015625)"/>
      <path id="TimesNewRomanPS-BoldMT-33" d="M 947 2125 
L 947 2234 
Q 1303 2338 1440 2427 
Q 1578 2516 1678 2698 
Q 1778 2881 1778 3069 
Q 1778 3328 1589 3514 
Q 1400 3700 1119 3700 
Q 681 3700 375 3238 
L 259 3278 
Q 484 3800 836 4062 
Q 1188 4325 1619 4325 
Q 2059 4325 2345 4056 
Q 2631 3788 2631 3428 
Q 2631 3194 2498 2976 
Q 2366 2759 2081 2594 
Q 2447 2416 2639 2155 
Q 2831 1894 2831 1500 
Q 2831 838 2351 373 
Q 1872 -91 1066 -91 
Q 528 -91 281 88 
Q 103 213 103 409 
Q 103 553 206 654 
Q 309 756 444 756 
Q 547 756 638 713 
Q 688 688 992 439 
Q 1297 191 1563 191 
Q 1794 191 1959 373 
Q 2125 556 2125 838 
Q 2125 1266 1825 1627 
Q 1525 1988 947 2125 
z
" transform="scale(0.015625)"/>
      <path id="TimesNewRomanPS-BoldMT-2e" d="M 800 963 
Q 1019 963 1170 809 
Q 1322 656 1322 441 
Q 1322 225 1169 73 
Q 1016 -78 800 -78 
Q 584 -78 432 73 
Q 281 225 281 441 
Q 281 656 432 809 
Q 584 963 800 963 
z
" transform="scale(0.015625)"/>
      <path id="TimesNewRomanPS-BoldMT-32" d="M 2650 0 
L 156 0 
L 156 69 
Q 1303 1434 1548 1906 
Q 1794 2378 1794 2828 
Q 1794 3156 1591 3373 
Q 1388 3591 1094 3591 
Q 613 3591 347 3109 
L 231 3150 
Q 400 3750 744 4037 
Q 1088 4325 1538 4325 
Q 1859 4325 2125 4175 
Q 2391 4025 2541 3764 
Q 2691 3503 2691 3275 
Q 2691 2859 2459 2431 
Q 2144 1853 1081 819 
L 1997 819 
Q 2334 819 2436 847 
Q 2538 875 2603 942 
Q 2669 1009 2775 1225 
L 2888 1225 
L 2650 0 
z
" transform="scale(0.015625)"/>
      <path id="TimesNewRomanPS-BoldMT-29" d="M 78 -1281 
L 78 -1138 
Q 403 -922 556 -719 
Q 766 -438 888 0 
Q 1038 550 1038 1531 
Q 1038 2456 902 2967 
Q 766 3478 531 3794 
Q 369 4013 78 4178 
L 78 4334 
Q 831 4081 1354 3301 
Q 1878 2522 1878 1509 
Q 1878 513 1354 -257 
Q 831 -1028 78 -1281 
z
" transform="scale(0.015625)"/>
     </defs>
     <use xlink:href="#TimesNewRomanPS-BoldMT-44"/>
     <use xlink:href="#TimesNewRomanPS-BoldMT-49" transform="translate(72.216797 0)"/>
     <use xlink:href="#TimesNewRomanPS-BoldMT-53" transform="translate(111.132812 0)"/>
     <use xlink:href="#TimesNewRomanPS-BoldMT-2d" transform="translate(166.748047 0)"/>
     <use xlink:href="#TimesNewRomanPS-BoldMT-41" transform="translate(200.048828 0)"/>
     <use xlink:href="#TimesNewRomanPS-BoldMT-44" transform="translate(272.265625 0)"/>
     <use xlink:href="#TimesNewRomanPS-BoldMT-20" transform="translate(344.482422 0)"/>
     <use xlink:href="#TimesNewRomanPS-BoldMT-28" transform="translate(369.482422 0)"/>
     <use xlink:href="#TimesNewRomanPS-BoldMT-41" transform="translate(402.783203 0)"/>
     <use xlink:href="#TimesNewRomanPS-BoldMT-76" transform="translate(467.625 0)"/>
     <use xlink:href="#TimesNewRomanPS-BoldMT-67" transform="translate(517.625 0)"/>
     <use xlink:href="#TimesNewRomanPS-BoldMT-20" transform="translate(567.625 0)"/>
     <use xlink:href="#TimesNewRomanPS-BoldMT-52" transform="translate(592.625 0)"/>
     <use xlink:href="#TimesNewRomanPS-BoldMT-61" transform="translate(664.841797 0)"/>
     <use xlink:href="#TimesNewRomanPS-BoldMT-6e" transform="translate(714.841797 0)"/>
     <use xlink:href="#TimesNewRomanPS-BoldMT-6b" transform="translate(770.457031 0)"/>
     <use xlink:href="#TimesNewRomanPS-BoldMT-3a" transform="translate(826.072266 0)"/>
     <use xlink:href="#TimesNewRomanPS-BoldMT-20" transform="translate(859.373047 0)"/>
     <use xlink:href="#TimesNewRomanPS-BoldMT-31" transform="translate(884.373047 0)"/>
     <use xlink:href="#TimesNewRomanPS-BoldMT-33" transform="translate(934.373047 0)"/>
     <use xlink:href="#TimesNewRomanPS-BoldMT-2e" transform="translate(984.373047 0)"/>
     <use xlink:href="#TimesNewRomanPS-BoldMT-31" transform="translate(1009.373047 0)"/>
     <use xlink:href="#TimesNewRomanPS-BoldMT-32" transform="translate(1059.373047 0)"/>
     <use xlink:href="#TimesNewRomanPS-BoldMT-29" transform="translate(1109.373047 0)"/>
    </g>
   </g>
   <g id="text_19">
    <!-- REPEN (Avg Rank: 12.87) -->
    <g style="fill: #45b7d1" transform="translate(25.194375 230.368475) scale(0.12 -0.12)">
     <defs>
      <path id="TimesNewRomanPS-BoldMT-45" d="M 1744 3994 
L 1744 2269 
L 1828 2269 
Q 2231 2269 2412 2522 
Q 2594 2775 2644 3269 
L 2763 3269 
L 2763 1050 
L 2644 1050 
Q 2606 1413 2486 1644 
Q 2366 1875 2206 1954 
Q 2047 2034 1744 2034 
L 1744 841 
Q 1744 491 1773 412 
Q 1803 334 1884 284 
Q 1966 234 2147 234 
L 2400 234 
Q 2994 234 3351 509 
Q 3709 784 3866 1347 
L 3981 1347 
L 3791 0 
L 128 0 
L 128 116 
L 269 116 
Q 453 116 566 181 
Q 647 225 691 331 
Q 725 406 725 725 
L 725 3513 
Q 725 3800 709 3866 
Q 678 3975 594 4034 
Q 475 4122 269 4122 
L 128 4122 
L 128 4238 
L 3675 4238 
L 3675 2984 
L 3556 2984 
Q 3466 3444 3302 3644 
Q 3138 3844 2838 3938 
Q 2663 3994 2181 3994 
L 1744 3994 
z
" transform="scale(0.015625)"/>
      <path id="TimesNewRomanPS-BoldMT-50" d="M 1728 1919 
L 1728 744 
Q 1728 400 1770 311 
Q 1813 222 1920 169 
Q 2028 116 2316 116 
L 2316 0 
L 163 0 
L 163 116 
Q 456 116 561 170 
Q 666 225 708 312 
Q 750 400 750 744 
L 750 3494 
Q 750 3838 708 3927 
Q 666 4016 559 4069 
Q 453 4122 163 4122 
L 163 4238 
L 2009 4238 
Q 2922 4238 3319 3913 
Q 3716 3588 3716 3100 
Q 3716 2688 3459 2394 
Q 3203 2100 2753 1994 
Q 2450 1919 1728 1919 
z
M 1728 3994 
L 1728 2163 
Q 1831 2156 1884 2156 
Q 2266 2156 2472 2382 
Q 2678 2609 2678 3084 
Q 2678 3556 2472 3775 
Q 2266 3994 1856 3994 
L 1728 3994 
z
" transform="scale(0.015625)"/>
      <path id="TimesNewRomanPS-BoldMT-4e" d="M 1594 4238 
L 3684 1609 
L 3684 3431 
Q 3684 3813 3575 3947 
Q 3425 4128 3072 4122 
L 3072 4238 
L 4472 4238 
L 4472 4122 
Q 4203 4088 4111 4033 
Q 4019 3978 3967 3854 
Q 3916 3731 3916 3431 
L 3916 -97 
L 3809 -97 
L 944 3431 
L 944 738 
Q 944 372 1111 244 
Q 1278 116 1494 116 
L 1594 116 
L 1594 0 
L 91 0 
L 91 116 
Q 441 119 578 259 
Q 716 400 716 738 
L 716 3728 
L 625 3841 
Q 491 4009 387 4062 
Q 284 4116 91 4122 
L 91 4238 
L 1594 4238 
z
" transform="scale(0.015625)"/>
      <path id="TimesNewRomanPS-BoldMT-38" d="M 2181 2394 
Q 2628 2066 2801 1783 
Q 2975 1500 2975 1134 
Q 2975 622 2589 267 
Q 2203 -88 1541 -88 
Q 913 -88 569 221 
Q 225 531 225 978 
Q 225 1319 423 1575 
Q 622 1831 1084 2044 
Q 581 2428 439 2672 
Q 297 2916 297 3238 
Q 297 3663 658 3986 
Q 1019 4309 1647 4309 
Q 2253 4309 2579 4023 
Q 2906 3738 2906 3338 
Q 2906 3038 2729 2808 
Q 2553 2578 2181 2394 
z
M 1944 2553 
Q 2059 2709 2115 2903 
Q 2172 3097 2172 3328 
Q 2172 3734 1997 3950 
Q 1866 4116 1634 4116 
Q 1425 4116 1278 3964 
Q 1131 3813 1131 3588 
Q 1131 3359 1295 3114 
Q 1459 2869 1944 2553 
z
M 1319 1894 
Q 1222 1806 1181 1734 
Q 1119 1625 1069 1415 
Q 1019 1206 1019 978 
Q 1019 684 1094 486 
Q 1169 288 1308 200 
Q 1447 113 1594 113 
Q 1822 113 1978 280 
Q 2134 447 2134 738 
Q 2134 1344 1319 1894 
z
" transform="scale(0.015625)"/>
      <path id="TimesNewRomanPS-BoldMT-37" d="M 1134 -88 
L 2288 3409 
L 1409 3409 
Q 894 3409 634 3275 
Q 453 3181 334 2922 
L 216 2922 
L 522 4238 
L 3047 4238 
L 1625 -88 
L 1134 -88 
z
" transform="scale(0.015625)"/>
     </defs>
     <use xlink:href="#TimesNewRomanPS-BoldMT-52"/>
     <use xlink:href="#TimesNewRomanPS-BoldMT-45" transform="translate(72.216797 0)"/>
     <use xlink:href="#TimesNewRomanPS-BoldMT-50" transform="translate(138.916016 0)"/>
     <use xlink:href="#TimesNewRomanPS-BoldMT-45" transform="translate(200 0)"/>
     <use xlink:href="#TimesNewRomanPS-BoldMT-4e" transform="translate(266.699219 0)"/>
     <use xlink:href="#TimesNewRomanPS-BoldMT-20" transform="translate(338.916016 0)"/>
     <use xlink:href="#TimesNewRomanPS-BoldMT-28" transform="translate(363.916016 0)"/>
     <use xlink:href="#TimesNewRomanPS-BoldMT-41" transform="translate(397.216797 0)"/>
     <use xlink:href="#TimesNewRomanPS-BoldMT-76" transform="translate(462.058594 0)"/>
     <use xlink:href="#TimesNewRomanPS-BoldMT-67" transform="translate(512.058594 0)"/>
     <use xlink:href="#TimesNewRomanPS-BoldMT-20" transform="translate(562.058594 0)"/>
     <use xlink:href="#TimesNewRomanPS-BoldMT-52" transform="translate(587.058594 0)"/>
     <use xlink:href="#TimesNewRomanPS-BoldMT-61" transform="translate(659.275391 0)"/>
     <use xlink:href="#TimesNewRomanPS-BoldMT-6e" transform="translate(709.275391 0)"/>
     <use xlink:href="#TimesNewRomanPS-BoldMT-6b" transform="translate(764.890625 0)"/>
     <use xlink:href="#TimesNewRomanPS-BoldMT-3a" transform="translate(820.505859 0)"/>
     <use xlink:href="#TimesNewRomanPS-BoldMT-20" transform="translate(853.806641 0)"/>
     <use xlink:href="#TimesNewRomanPS-BoldMT-31" transform="translate(878.806641 0)"/>
     <use xlink:href="#TimesNewRomanPS-BoldMT-32" transform="translate(928.806641 0)"/>
     <use xlink:href="#TimesNewRomanPS-BoldMT-2e" transform="translate(978.806641 0)"/>
     <use xlink:href="#TimesNewRomanPS-BoldMT-38" transform="translate(1003.806641 0)"/>
     <use xlink:href="#TimesNewRomanPS-BoldMT-37" transform="translate(1053.806641 0)"/>
     <use xlink:href="#TimesNewRomanPS-BoldMT-29" transform="translate(1103.806641 0)"/>
    </g>
   </g>
   <g id="text_20">
    <!-- ECOD (Avg Rank: 11.65) -->
    <g style="fill: #96ceb4" transform="translate(31.854375 253.631908) scale(0.12 -0.12)">
     <defs>
      <path id="TimesNewRomanPS-BoldMT-43" d="M 4272 4334 
L 4272 2866 
L 4150 2866 
Q 4013 3441 3638 3747 
Q 3263 4053 2788 4053 
Q 2391 4053 2059 3825 
Q 1728 3597 1575 3228 
Q 1378 2756 1378 2178 
Q 1378 1609 1522 1142 
Q 1666 675 1972 436 
Q 2278 197 2766 197 
Q 3166 197 3498 372 
Q 3831 547 4200 975 
L 4200 609 
Q 3844 238 3458 70 
Q 3072 -97 2556 -97 
Q 1878 -97 1351 175 
Q 825 447 539 956 
Q 253 1466 253 2041 
Q 253 2647 570 3190 
Q 888 3734 1427 4034 
Q 1966 4334 2572 4334 
Q 3019 4334 3516 4141 
Q 3803 4028 3881 4028 
Q 3981 4028 4054 4101 
Q 4128 4175 4150 4334 
L 4272 4334 
z
" transform="scale(0.015625)"/>
      <path id="TimesNewRomanPS-BoldMT-4f" d="M 2472 4297 
Q 3484 4334 4117 3706 
Q 4750 3078 4750 2134 
Q 4750 1328 4278 716 
Q 3653 -97 2513 -97 
Q 1369 -97 744 678 
Q 250 1291 250 2131 
Q 250 3075 892 3704 
Q 1534 4334 2472 4297 
z
M 2509 4097 
Q 1928 4097 1625 3503 
Q 1378 3016 1378 2103 
Q 1378 1019 1759 500 
Q 2025 138 2503 138 
Q 2825 138 3041 294 
Q 3316 494 3469 933 
Q 3622 1372 3622 2078 
Q 3622 2919 3465 3336 
Q 3309 3753 3067 3925 
Q 2825 4097 2509 4097 
z
" transform="scale(0.015625)"/>
      <path id="TimesNewRomanPS-BoldMT-36" d="M 3006 4325 
L 3006 4238 
Q 2441 4094 2098 3867 
Q 1756 3641 1557 3317 
Q 1359 2994 1250 2516 
Q 1388 2609 1478 2638 
Q 1681 2700 1888 2700 
Q 2363 2700 2680 2354 
Q 2997 2009 2997 1413 
Q 2997 994 2825 644 
Q 2653 294 2337 103 
Q 2022 -88 1663 -88 
Q 1272 -88 940 126 
Q 609 341 423 753 
Q 238 1166 238 1650 
Q 238 2363 580 2977 
Q 922 3591 1551 3955 
Q 2181 4319 3006 4325 
z
M 1209 2263 
Q 1184 1831 1184 1631 
Q 1184 1200 1267 797 
Q 1350 394 1494 231 
Q 1597 116 1738 116 
Q 1881 116 1993 283 
Q 2106 450 2106 963 
Q 2106 1825 1897 2153 
Q 1763 2366 1534 2366 
Q 1409 2366 1209 2263 
z
" transform="scale(0.015625)"/>
      <path id="TimesNewRomanPS-BoldMT-35" d="M 975 4238 
L 2959 4238 
L 2644 3431 
L 975 3431 
L 816 3009 
Q 1894 2969 2475 2472 
Q 2953 2063 2953 1453 
Q 2953 1063 2731 689 
Q 2509 316 2106 114 
Q 1703 -88 1222 -88 
Q 703 -88 425 106 
Q 231 244 231 419 
Q 231 553 332 656 
Q 434 759 569 759 
Q 691 759 816 709 
Q 941 659 1244 447 
Q 1434 316 1572 266 
Q 1669 228 1791 228 
Q 2047 228 2226 415 
Q 2406 603 2406 866 
Q 2406 1416 1856 1759 
Q 1306 2103 469 2103 
Q 384 2103 216 2100 
L 975 4238 
z
" transform="scale(0.015625)"/>
     </defs>
     <use xlink:href="#TimesNewRomanPS-BoldMT-45"/>
     <use xlink:href="#TimesNewRomanPS-BoldMT-43" transform="translate(66.699219 0)"/>
     <use xlink:href="#TimesNewRomanPS-BoldMT-4f" transform="translate(138.916016 0)"/>
     <use xlink:href="#TimesNewRomanPS-BoldMT-44" transform="translate(216.699219 0)"/>
     <use xlink:href="#TimesNewRomanPS-BoldMT-20" transform="translate(288.916016 0)"/>
     <use xlink:href="#TimesNewRomanPS-BoldMT-28" transform="translate(313.916016 0)"/>
     <use xlink:href="#TimesNewRomanPS-BoldMT-41" transform="translate(347.216797 0)"/>
     <use xlink:href="#TimesNewRomanPS-BoldMT-76" transform="translate(412.058594 0)"/>
     <use xlink:href="#TimesNewRomanPS-BoldMT-67" transform="translate(462.058594 0)"/>
     <use xlink:href="#TimesNewRomanPS-BoldMT-20" transform="translate(512.058594 0)"/>
     <use xlink:href="#TimesNewRomanPS-BoldMT-52" transform="translate(537.058594 0)"/>
     <use xlink:href="#TimesNewRomanPS-BoldMT-61" transform="translate(609.275391 0)"/>
     <use xlink:href="#TimesNewRomanPS-BoldMT-6e" transform="translate(659.275391 0)"/>
     <use xlink:href="#TimesNewRomanPS-BoldMT-6b" transform="translate(714.890625 0)"/>
     <use xlink:href="#TimesNewRomanPS-BoldMT-3a" transform="translate(770.505859 0)"/>
     <use xlink:href="#TimesNewRomanPS-BoldMT-20" transform="translate(803.806641 0)"/>
     <use xlink:href="#TimesNewRomanPS-BoldMT-31" transform="translate(828.806641 0)"/>
     <use xlink:href="#TimesNewRomanPS-BoldMT-31" transform="translate(873.306641 0)"/>
     <use xlink:href="#TimesNewRomanPS-BoldMT-2e" transform="translate(923.306641 0)"/>
     <use xlink:href="#TimesNewRomanPS-BoldMT-36" transform="translate(948.306641 0)"/>
     <use xlink:href="#TimesNewRomanPS-BoldMT-35" transform="translate(998.306641 0)"/>
     <use xlink:href="#TimesNewRomanPS-BoldMT-29" transform="translate(1048.306641 0)"/>
    </g>
   </g>
   <g id="text_21">
    <!-- DRL (Avg Rank: 11.37) -->
    <g style="fill: #ffd700" transform="translate(41.848125 276.89534) scale(0.12 -0.12)">
     <defs>
      <path id="TimesNewRomanPS-BoldMT-4c" d="M 4041 1488 
L 3881 0 
L 119 0 
L 119 116 
L 259 116 
Q 444 116 556 181 
Q 638 225 681 331 
Q 716 406 716 725 
L 716 3513 
Q 716 3838 681 3919 
Q 647 4000 542 4061 
Q 438 4122 259 4122 
L 119 4122 
L 119 4238 
L 2378 4238 
L 2378 4122 
L 2194 4122 
Q 2009 4122 1897 4056 
Q 1816 4013 1769 3906 
Q 1734 3831 1734 3513 
L 1734 813 
Q 1734 488 1771 398 
Q 1809 309 1919 266 
Q 1997 238 2297 238 
L 2650 238 
Q 2988 238 3213 356 
Q 3438 475 3602 731 
Q 3766 988 3913 1488 
L 4041 1488 
z
" transform="scale(0.015625)"/>
     </defs>
     <use xlink:href="#TimesNewRomanPS-BoldMT-44"/>
     <use xlink:href="#TimesNewRomanPS-BoldMT-52" transform="translate(72.216797 0)"/>
     <use xlink:href="#TimesNewRomanPS-BoldMT-4c" transform="translate(144.433594 0)"/>
     <use xlink:href="#TimesNewRomanPS-BoldMT-20" transform="translate(205.632812 0)"/>
     <use xlink:href="#TimesNewRomanPS-BoldMT-28" transform="translate(230.632812 0)"/>
     <use xlink:href="#TimesNewRomanPS-BoldMT-41" transform="translate(263.933594 0)"/>
     <use xlink:href="#TimesNewRomanPS-BoldMT-76" transform="translate(328.775391 0)"/>
     <use xlink:href="#TimesNewRomanPS-BoldMT-67" transform="translate(378.775391 0)"/>
     <use xlink:href="#TimesNewRomanPS-BoldMT-20" transform="translate(428.775391 0)"/>
     <use xlink:href="#TimesNewRomanPS-BoldMT-52" transform="translate(453.775391 0)"/>
     <use xlink:href="#TimesNewRomanPS-BoldMT-61" transform="translate(525.992188 0)"/>
     <use xlink:href="#TimesNewRomanPS-BoldMT-6e" transform="translate(575.992188 0)"/>
     <use xlink:href="#TimesNewRomanPS-BoldMT-6b" transform="translate(631.607422 0)"/>
     <use xlink:href="#TimesNewRomanPS-BoldMT-3a" transform="translate(687.222656 0)"/>
     <use xlink:href="#TimesNewRomanPS-BoldMT-20" transform="translate(720.523438 0)"/>
     <use xlink:href="#TimesNewRomanPS-BoldMT-31" transform="translate(745.523438 0)"/>
     <use xlink:href="#TimesNewRomanPS-BoldMT-31" transform="translate(790.023438 0)"/>
     <use xlink:href="#TimesNewRomanPS-BoldMT-2e" transform="translate(840.023438 0)"/>
     <use xlink:href="#TimesNewRomanPS-BoldMT-33" transform="translate(865.023438 0)"/>
     <use xlink:href="#TimesNewRomanPS-BoldMT-37" transform="translate(915.023438 0)"/>
     <use xlink:href="#TimesNewRomanPS-BoldMT-29" transform="translate(965.023438 0)"/>
    </g>
   </g>
   <g id="text_22">
    <!-- MCM (Avg Rank: 11.04) -->
    <g style="fill: #dda0dd" transform="translate(35.205 300.158773) scale(0.12 -0.12)">
     <defs>
      <path id="TimesNewRomanPS-BoldMT-4d" d="M 3050 1444 
L 4200 4238 
L 5925 4238 
L 5925 4122 
L 5788 4122 
Q 5600 4122 5488 4056 
Q 5409 4013 5363 3909 
Q 5328 3834 5328 3519 
L 5328 725 
Q 5328 400 5362 319 
Q 5397 238 5503 177 
Q 5609 116 5788 116 
L 5925 116 
L 5925 0 
L 3713 0 
L 3713 116 
L 3850 116 
Q 4038 116 4150 181 
Q 4228 225 4275 331 
Q 4309 406 4309 725 
L 4309 3866 
L 2684 0 
L 2609 0 
L 959 3838 
L 959 853 
Q 959 541 975 469 
Q 1016 313 1152 214 
Q 1288 116 1578 116 
L 1578 0 
L 128 0 
L 128 116 
L 172 116 
Q 313 113 434 161 
Q 556 209 618 290 
Q 681 372 716 519 
Q 722 553 722 838 
L 722 3519 
Q 722 3841 687 3920 
Q 653 4000 547 4061 
Q 441 4122 263 4122 
L 128 4122 
L 128 4238 
L 1859 4238 
L 3050 1444 
z
" transform="scale(0.015625)"/>
      <path id="TimesNewRomanPS-BoldMT-30" d="M 2966 2119 
Q 2966 1484 2788 934 
Q 2681 597 2501 381 
Q 2322 166 2094 39 
Q 1866 -88 1597 -88 
Q 1291 -88 1044 68 
Q 797 225 606 516 
Q 469 728 366 1081 
Q 231 1559 231 2069 
Q 231 2759 425 3338 
Q 584 3816 909 4070 
Q 1234 4325 1597 4325 
Q 1966 4325 2286 4073 
Q 2606 3822 2756 3397 
Q 2966 2813 2966 2119 
z
M 2003 2125 
Q 2003 3238 1991 3422 
Q 1959 3856 1841 4009 
Q 1763 4109 1588 4109 
Q 1453 4109 1375 4034 
Q 1259 3925 1218 3648 
Q 1178 3372 1178 1719 
Q 1178 819 1241 513 
Q 1288 291 1375 216 
Q 1463 141 1606 141 
Q 1763 141 1841 241 
Q 1972 416 1991 781 
L 2003 2125 
z
" transform="scale(0.015625)"/>
      <path id="TimesNewRomanPS-BoldMT-34" d="M 159 1597 
L 2172 4325 
L 2553 4325 
L 2553 1597 
L 2941 1597 
L 2941 950 
L 2553 950 
L 2553 0 
L 1694 0 
L 1694 950 
L 159 950 
L 159 1597 
z
M 463 1597 
L 1694 1597 
L 1694 3269 
L 463 1597 
z
" transform="scale(0.015625)"/>
     </defs>
     <use xlink:href="#TimesNewRomanPS-BoldMT-4d"/>
     <use xlink:href="#TimesNewRomanPS-BoldMT-43" transform="translate(94.384766 0)"/>
     <use xlink:href="#TimesNewRomanPS-BoldMT-4d" transform="translate(166.601562 0)"/>
     <use xlink:href="#TimesNewRomanPS-BoldMT-20" transform="translate(260.986328 0)"/>
     <use xlink:href="#TimesNewRomanPS-BoldMT-28" transform="translate(285.986328 0)"/>
     <use xlink:href="#TimesNewRomanPS-BoldMT-41" transform="translate(319.287109 0)"/>
     <use xlink:href="#TimesNewRomanPS-BoldMT-76" transform="translate(384.128906 0)"/>
     <use xlink:href="#TimesNewRomanPS-BoldMT-67" transform="translate(434.128906 0)"/>
     <use xlink:href="#TimesNewRomanPS-BoldMT-20" transform="translate(484.128906 0)"/>
     <use xlink:href="#TimesNewRomanPS-BoldMT-52" transform="translate(509.128906 0)"/>
     <use xlink:href="#TimesNewRomanPS-BoldMT-61" transform="translate(581.345703 0)"/>
     <use xlink:href="#TimesNewRomanPS-BoldMT-6e" transform="translate(631.345703 0)"/>
     <use xlink:href="#TimesNewRomanPS-BoldMT-6b" transform="translate(686.960938 0)"/>
     <use xlink:href="#TimesNewRomanPS-BoldMT-3a" transform="translate(742.576172 0)"/>
     <use xlink:href="#TimesNewRomanPS-BoldMT-20" transform="translate(775.876953 0)"/>
     <use xlink:href="#TimesNewRomanPS-BoldMT-31" transform="translate(800.876953 0)"/>
     <use xlink:href="#TimesNewRomanPS-BoldMT-31" transform="translate(845.376953 0)"/>
     <use xlink:href="#TimesNewRomanPS-BoldMT-2e" transform="translate(895.376953 0)"/>
     <use xlink:href="#TimesNewRomanPS-BoldMT-30" transform="translate(920.376953 0)"/>
     <use xlink:href="#TimesNewRomanPS-BoldMT-34" transform="translate(970.376953 0)"/>
     <use xlink:href="#TimesNewRomanPS-BoldMT-29" transform="translate(1020.376953 0)"/>
    </g>
   </g>
   <g id="text_23">
    <!-- GOAD (Avg Rank: 11.04) -->
    <g style="fill: #98d8c8" transform="translate(30.525 323.425956) scale(0.12 -0.12)">
     <defs>
      <path id="TimesNewRomanPS-BoldMT-47" d="M 4416 4334 
L 4416 2841 
L 4300 2841 
Q 4091 3453 3672 3772 
Q 3253 4091 2756 4091 
Q 2281 4091 1965 3823 
Q 1650 3556 1519 3078 
Q 1388 2600 1388 2097 
Q 1388 1488 1531 1028 
Q 1675 569 1995 353 
Q 2316 138 2756 138 
Q 2909 138 3070 170 
Q 3231 203 3400 266 
L 3400 1147 
Q 3400 1397 3365 1470 
Q 3331 1544 3223 1603 
Q 3116 1663 2963 1663 
L 2853 1663 
L 2853 1778 
L 4913 1778 
L 4913 1663 
Q 4678 1647 4586 1598 
Q 4494 1550 4444 1438 
Q 4416 1378 4416 1147 
L 4416 266 
Q 4009 84 3570 -8 
Q 3131 -100 2659 -100 
Q 2056 -100 1657 64 
Q 1259 228 954 495 
Q 650 763 478 1097 
Q 259 1528 259 2063 
Q 259 3019 931 3678 
Q 1603 4338 2622 4338 
Q 2938 4338 3191 4288 
Q 3328 4263 3636 4145 
Q 3944 4028 4000 4028 
Q 4088 4028 4163 4092 
Q 4238 4156 4300 4334 
L 4416 4334 
z
" transform="scale(0.015625)"/>
     </defs>
     <use xlink:href="#TimesNewRomanPS-BoldMT-47"/>
     <use xlink:href="#TimesNewRomanPS-BoldMT-4f" transform="translate(77.783203 0)"/>
     <use xlink:href="#TimesNewRomanPS-BoldMT-41" transform="translate(155.566406 0)"/>
     <use xlink:href="#TimesNewRomanPS-BoldMT-44" transform="translate(227.783203 0)"/>
     <use xlink:href="#TimesNewRomanPS-BoldMT-20" transform="translate(300 0)"/>
     <use xlink:href="#TimesNewRomanPS-BoldMT-28" transform="translate(325 0)"/>
     <use xlink:href="#TimesNewRomanPS-BoldMT-41" transform="translate(358.300781 0)"/>
     <use xlink:href="#TimesNewRomanPS-BoldMT-76" transform="translate(423.142578 0)"/>
     <use xlink:href="#TimesNewRomanPS-BoldMT-67" transform="translate(473.142578 0)"/>
     <use xlink:href="#TimesNewRomanPS-BoldMT-20" transform="translate(523.142578 0)"/>
     <use xlink:href="#TimesNewRomanPS-BoldMT-52" transform="translate(548.142578 0)"/>
     <use xlink:href="#TimesNewRomanPS-BoldMT-61" transform="translate(620.359375 0)"/>
     <use xlink:href="#TimesNewRomanPS-BoldMT-6e" transform="translate(670.359375 0)"/>
     <use xlink:href="#TimesNewRomanPS-BoldMT-6b" transform="translate(725.974609 0)"/>
     <use xlink:href="#TimesNewRomanPS-BoldMT-3a" transform="translate(781.589844 0)"/>
     <use xlink:href="#TimesNewRomanPS-BoldMT-20" transform="translate(814.890625 0)"/>
     <use xlink:href="#TimesNewRomanPS-BoldMT-31" transform="translate(839.890625 0)"/>
     <use xlink:href="#TimesNewRomanPS-BoldMT-31" transform="translate(884.390625 0)"/>
     <use xlink:href="#TimesNewRomanPS-BoldMT-2e" transform="translate(934.390625 0)"/>
     <use xlink:href="#TimesNewRomanPS-BoldMT-30" transform="translate(959.390625 0)"/>
     <use xlink:href="#TimesNewRomanPS-BoldMT-34" transform="translate(1009.390625 0)"/>
     <use xlink:href="#TimesNewRomanPS-BoldMT-29" transform="translate(1059.390625 0)"/>
    </g>
   </g>
   <g id="text_24">
    <!-- DeepSVDD (Avg Rank: 10.75) -->
    <g style="fill: #f7dc6f" transform="translate(7.2 346.685639) scale(0.12 -0.12)">
     <defs>
      <path id="TimesNewRomanPS-BoldMT-65" d="M 2691 1566 
L 1088 1566 
Q 1116 984 1397 647 
Q 1613 388 1916 388 
Q 2103 388 2256 492 
Q 2409 597 2584 869 
L 2691 800 
Q 2453 316 2165 114 
Q 1878 -88 1500 -88 
Q 850 -88 516 413 
Q 247 816 247 1413 
Q 247 2144 642 2576 
Q 1038 3009 1569 3009 
Q 2013 3009 2339 2645 
Q 2666 2281 2691 1566 
z
M 1922 1775 
Q 1922 2278 1867 2465 
Q 1813 2653 1697 2750 
Q 1631 2806 1522 2806 
Q 1359 2806 1256 2647 
Q 1072 2369 1072 1884 
L 1072 1775 
L 1922 1775 
z
" transform="scale(0.015625)"/>
      <path id="TimesNewRomanPS-BoldMT-70" d="M 1347 297 
L 1347 -791 
Q 1347 -1016 1383 -1097 
Q 1419 -1178 1494 -1215 
Q 1569 -1253 1788 -1253 
L 1788 -1369 
L 122 -1369 
L 122 -1253 
Q 316 -1247 409 -1144 
Q 472 -1072 472 -772 
L 472 2313 
Q 472 2622 400 2708 
Q 328 2794 122 2806 
L 122 2922 
L 1347 2922 
L 1347 2538 
Q 1500 2763 1659 2863 
Q 1888 3009 2156 3009 
Q 2478 3009 2742 2806 
Q 3006 2603 3143 2245 
Q 3281 1888 3281 1475 
Q 3281 1031 3139 664 
Q 2997 297 2726 104 
Q 2456 -88 2125 -88 
Q 1884 -88 1675 19 
Q 1519 100 1347 297 
z
M 1347 613 
Q 1616 231 1922 231 
Q 2091 231 2200 409 
Q 2363 672 2363 1409 
Q 2363 2166 2184 2444 
Q 2066 2628 1866 2628 
Q 1550 2628 1347 2172 
L 1347 613 
z
" transform="scale(0.015625)"/>
      <path id="TimesNewRomanPS-BoldMT-56" d="M 4556 4238 
L 4556 4122 
Q 4325 4084 4144 3875 
Q 4013 3719 3753 3141 
L 2294 -97 
L 2191 -97 
L 738 3272 
Q 475 3881 386 3987 
Q 297 4094 50 4122 
L 50 4238 
L 2081 4238 
L 2081 4122 
L 2013 4122 
Q 1738 4122 1638 4053 
Q 1566 4006 1566 3916 
Q 1566 3859 1591 3782 
Q 1616 3706 1759 3372 
L 2663 1263 
L 3500 3141 
Q 3650 3481 3684 3597 
Q 3719 3713 3719 3794 
Q 3719 3888 3669 3959 
Q 3619 4031 3522 4069 
Q 3388 4122 3166 4122 
L 3166 4238 
L 4556 4238 
z
" transform="scale(0.015625)"/>
     </defs>
     <use xlink:href="#TimesNewRomanPS-BoldMT-44"/>
     <use xlink:href="#TimesNewRomanPS-BoldMT-65" transform="translate(72.216797 0)"/>
     <use xlink:href="#TimesNewRomanPS-BoldMT-65" transform="translate(116.601562 0)"/>
     <use xlink:href="#TimesNewRomanPS-BoldMT-70" transform="translate(160.986328 0)"/>
     <use xlink:href="#TimesNewRomanPS-BoldMT-53" transform="translate(216.601562 0)"/>
     <use xlink:href="#TimesNewRomanPS-BoldMT-56" transform="translate(272.216797 0)"/>
     <use xlink:href="#TimesNewRomanPS-BoldMT-44" transform="translate(344.433594 0)"/>
     <use xlink:href="#TimesNewRomanPS-BoldMT-44" transform="translate(416.650391 0)"/>
     <use xlink:href="#TimesNewRomanPS-BoldMT-20" transform="translate(488.867188 0)"/>
     <use xlink:href="#TimesNewRomanPS-BoldMT-28" transform="translate(513.867188 0)"/>
     <use xlink:href="#TimesNewRomanPS-BoldMT-41" transform="translate(547.167969 0)"/>
     <use xlink:href="#TimesNewRomanPS-BoldMT-76" transform="translate(612.009766 0)"/>
     <use xlink:href="#TimesNewRomanPS-BoldMT-67" transform="translate(662.009766 0)"/>
     <use xlink:href="#TimesNewRomanPS-BoldMT-20" transform="translate(712.009766 0)"/>
     <use xlink:href="#TimesNewRomanPS-BoldMT-52" transform="translate(737.009766 0)"/>
     <use xlink:href="#TimesNewRomanPS-BoldMT-61" transform="translate(809.226562 0)"/>
     <use xlink:href="#TimesNewRomanPS-BoldMT-6e" transform="translate(859.226562 0)"/>
     <use xlink:href="#TimesNewRomanPS-BoldMT-6b" transform="translate(914.841797 0)"/>
     <use xlink:href="#TimesNewRomanPS-BoldMT-3a" transform="translate(970.457031 0)"/>
     <use xlink:href="#TimesNewRomanPS-BoldMT-20" transform="translate(1003.757812 0)"/>
     <use xlink:href="#TimesNewRomanPS-BoldMT-31" transform="translate(1028.757812 0)"/>
     <use xlink:href="#TimesNewRomanPS-BoldMT-30" transform="translate(1078.757812 0)"/>
     <use xlink:href="#TimesNewRomanPS-BoldMT-2e" transform="translate(1128.757812 0)"/>
     <use xlink:href="#TimesNewRomanPS-BoldMT-37" transform="translate(1153.757812 0)"/>
     <use xlink:href="#TimesNewRomanPS-BoldMT-35" transform="translate(1203.757812 0)"/>
     <use xlink:href="#TimesNewRomanPS-BoldMT-29" transform="translate(1253.757812 0)"/>
    </g>
   </g>
   <g id="text_25">
    <!-- PCA (Avg Rank: 9.54) -->
    <g style="fill: #bb8fce" transform="translate(47.863125 369.949072) scale(0.12 -0.12)">
     <defs>
      <path id="TimesNewRomanPS-BoldMT-39" d="M 197 -88 
L 197 0 
Q 716 119 1077 350 
Q 1438 581 1648 922 
Q 1859 1263 1944 1706 
Q 1750 1606 1614 1567 
Q 1478 1528 1328 1528 
Q 847 1528 526 1875 
Q 206 2222 206 2825 
Q 206 3244 379 3592 
Q 553 3941 875 4133 
Q 1197 4325 1544 4325 
Q 1916 4325 2247 4112 
Q 2578 3900 2775 3497 
Q 2972 3094 2972 2578 
Q 2972 1909 2651 1296 
Q 2331 684 1697 314 
Q 1063 -56 197 -88 
z
M 1991 1969 
Q 2022 2319 2022 2584 
Q 2022 3153 1891 3644 
Q 1816 3916 1669 4044 
Q 1591 4113 1466 4113 
Q 1309 4113 1222 3978 
Q 1100 3794 1100 3275 
Q 1100 2409 1306 2081 
Q 1441 1869 1669 1869 
Q 1791 1869 1991 1969 
z
" transform="scale(0.015625)"/>
     </defs>
     <use xlink:href="#TimesNewRomanPS-BoldMT-50"/>
     <use xlink:href="#TimesNewRomanPS-BoldMT-43" transform="translate(61.083984 0)"/>
     <use xlink:href="#TimesNewRomanPS-BoldMT-41" transform="translate(133.300781 0)"/>
     <use xlink:href="#TimesNewRomanPS-BoldMT-20" transform="translate(200.017578 0)"/>
     <use xlink:href="#TimesNewRomanPS-BoldMT-28" transform="translate(225.017578 0)"/>
     <use xlink:href="#TimesNewRomanPS-BoldMT-41" transform="translate(258.318359 0)"/>
     <use xlink:href="#TimesNewRomanPS-BoldMT-76" transform="translate(323.160156 0)"/>
     <use xlink:href="#TimesNewRomanPS-BoldMT-67" transform="translate(373.160156 0)"/>
     <use xlink:href="#TimesNewRomanPS-BoldMT-20" transform="translate(423.160156 0)"/>
     <use xlink:href="#TimesNewRomanPS-BoldMT-52" transform="translate(448.160156 0)"/>
     <use xlink:href="#TimesNewRomanPS-BoldMT-61" transform="translate(520.376953 0)"/>
     <use xlink:href="#TimesNewRomanPS-BoldMT-6e" transform="translate(570.376953 0)"/>
     <use xlink:href="#TimesNewRomanPS-BoldMT-6b" transform="translate(625.992188 0)"/>
     <use xlink:href="#TimesNewRomanPS-BoldMT-3a" transform="translate(681.607422 0)"/>
     <use xlink:href="#TimesNewRomanPS-BoldMT-20" transform="translate(714.908203 0)"/>
     <use xlink:href="#TimesNewRomanPS-BoldMT-39" transform="translate(739.908203 0)"/>
     <use xlink:href="#TimesNewRomanPS-BoldMT-2e" transform="translate(789.908203 0)"/>
     <use xlink:href="#TimesNewRomanPS-BoldMT-35" transform="translate(814.908203 0)"/>
     <use xlink:href="#TimesNewRomanPS-BoldMT-34" transform="translate(864.908203 0)"/>
     <use xlink:href="#TimesNewRomanPS-BoldMT-29" transform="translate(914.908203 0)"/>
    </g>
   </g>
   <g id="text_26">
    <!-- RCA (Avg Rank: 9.08) -->
    <g style="fill: #85c1e9" transform="translate(46.52625 393.212505) scale(0.12 -0.12)">
     <use xlink:href="#TimesNewRomanPS-BoldMT-52"/>
     <use xlink:href="#TimesNewRomanPS-BoldMT-43" transform="translate(72.216797 0)"/>
     <use xlink:href="#TimesNewRomanPS-BoldMT-41" transform="translate(144.433594 0)"/>
     <use xlink:href="#TimesNewRomanPS-BoldMT-20" transform="translate(211.150391 0)"/>
     <use xlink:href="#TimesNewRomanPS-BoldMT-28" transform="translate(236.150391 0)"/>
     <use xlink:href="#TimesNewRomanPS-BoldMT-41" transform="translate(269.451172 0)"/>
     <use xlink:href="#TimesNewRomanPS-BoldMT-76" transform="translate(334.292969 0)"/>
     <use xlink:href="#TimesNewRomanPS-BoldMT-67" transform="translate(384.292969 0)"/>
     <use xlink:href="#TimesNewRomanPS-BoldMT-20" transform="translate(434.292969 0)"/>
     <use xlink:href="#TimesNewRomanPS-BoldMT-52" transform="translate(459.292969 0)"/>
     <use xlink:href="#TimesNewRomanPS-BoldMT-61" transform="translate(531.509766 0)"/>
     <use xlink:href="#TimesNewRomanPS-BoldMT-6e" transform="translate(581.509766 0)"/>
     <use xlink:href="#TimesNewRomanPS-BoldMT-6b" transform="translate(637.125 0)"/>
     <use xlink:href="#TimesNewRomanPS-BoldMT-3a" transform="translate(692.740234 0)"/>
     <use xlink:href="#TimesNewRomanPS-BoldMT-20" transform="translate(726.041016 0)"/>
     <use xlink:href="#TimesNewRomanPS-BoldMT-39" transform="translate(751.041016 0)"/>
     <use xlink:href="#TimesNewRomanPS-BoldMT-2e" transform="translate(801.041016 0)"/>
     <use xlink:href="#TimesNewRomanPS-BoldMT-30" transform="translate(826.041016 0)"/>
     <use xlink:href="#TimesNewRomanPS-BoldMT-38" transform="translate(876.041016 0)"/>
     <use xlink:href="#TimesNewRomanPS-BoldMT-29" transform="translate(926.041016 0)"/>
    </g>
   </g>
   <g id="text_27">
    <!-- SLAD (Avg Rank: 8.87) -->
    <g style="fill: #f8c471" transform="translate(693.077625 369.949072) scale(0.12 -0.12)">
     <use xlink:href="#TimesNewRomanPS-BoldMT-53"/>
     <use xlink:href="#TimesNewRomanPS-BoldMT-4c" transform="translate(55.615234 0)"/>
     <use xlink:href="#TimesNewRomanPS-BoldMT-41" transform="translate(122.314453 0)"/>
     <use xlink:href="#TimesNewRomanPS-BoldMT-44" transform="translate(194.53125 0)"/>
     <use xlink:href="#TimesNewRomanPS-BoldMT-20" transform="translate(266.748047 0)"/>
     <use xlink:href="#TimesNewRomanPS-BoldMT-28" transform="translate(291.748047 0)"/>
     <use xlink:href="#TimesNewRomanPS-BoldMT-41" transform="translate(325.048828 0)"/>
     <use xlink:href="#TimesNewRomanPS-BoldMT-76" transform="translate(389.890625 0)"/>
     <use xlink:href="#TimesNewRomanPS-BoldMT-67" transform="translate(439.890625 0)"/>
     <use xlink:href="#TimesNewRomanPS-BoldMT-20" transform="translate(489.890625 0)"/>
     <use xlink:href="#TimesNewRomanPS-BoldMT-52" transform="translate(514.890625 0)"/>
     <use xlink:href="#TimesNewRomanPS-BoldMT-61" transform="translate(587.107422 0)"/>
     <use xlink:href="#TimesNewRomanPS-BoldMT-6e" transform="translate(637.107422 0)"/>
     <use xlink:href="#TimesNewRomanPS-BoldMT-6b" transform="translate(692.722656 0)"/>
     <use xlink:href="#TimesNewRomanPS-BoldMT-3a" transform="translate(748.337891 0)"/>
     <use xlink:href="#TimesNewRomanPS-BoldMT-20" transform="translate(781.638672 0)"/>
     <use xlink:href="#TimesNewRomanPS-BoldMT-38" transform="translate(806.638672 0)"/>
     <use xlink:href="#TimesNewRomanPS-BoldMT-2e" transform="translate(856.638672 0)"/>
     <use xlink:href="#TimesNewRomanPS-BoldMT-38" transform="translate(881.638672 0)"/>
     <use xlink:href="#TimesNewRomanPS-BoldMT-37" transform="translate(931.638672 0)"/>
     <use xlink:href="#TimesNewRomanPS-BoldMT-29" transform="translate(981.638672 0)"/>
    </g>
   </g>
   <g id="text_28">
    <!-- Iforest (Avg Rank: 8.38) -->
    <g style="fill: #32cd32" transform="translate(693.077625 346.685639) scale(0.12 -0.12)">
     <defs>
      <path id="TimesNewRomanPS-BoldMT-66" d="M 1497 2616 
L 1497 588 
Q 1497 294 1559 219 
Q 1659 103 1928 113 
L 1928 0 
L 206 0 
L 206 113 
Q 403 116 486 158 
Q 569 200 600 275 
Q 631 350 631 588 
L 631 2616 
L 206 2616 
L 206 2922 
L 631 2922 
L 631 3138 
L 628 3284 
Q 628 3734 958 4034 
Q 1288 4334 1850 4334 
Q 2234 4334 2420 4190 
Q 2606 4047 2606 3872 
Q 2606 3731 2490 3628 
Q 2375 3525 2184 3525 
Q 2022 3525 1926 3609 
Q 1831 3694 1831 3797 
Q 1831 3825 1850 3913 
Q 1863 3966 1863 4013 
Q 1863 4078 1825 4109 
Q 1775 4156 1703 4156 
Q 1613 4156 1552 4081 
Q 1491 4006 1491 3841 
L 1497 3294 
L 1497 2922 
L 1928 2922 
L 1928 2616 
L 1497 2616 
z
" transform="scale(0.015625)"/>
      <path id="TimesNewRomanPS-BoldMT-6f" d="M 1594 3009 
Q 1975 3009 2303 2812 
Q 2631 2616 2801 2253 
Q 2972 1891 2972 1459 
Q 2972 838 2656 419 
Q 2275 -88 1603 -88 
Q 944 -88 587 375 
Q 231 838 231 1447 
Q 231 2075 595 2542 
Q 959 3009 1594 3009 
z
M 1606 2788 
Q 1447 2788 1333 2667 
Q 1219 2547 1183 2192 
Q 1147 1838 1147 1206 
Q 1147 872 1191 581 
Q 1225 359 1337 243 
Q 1450 128 1594 128 
Q 1734 128 1828 206 
Q 1950 313 1991 503 
Q 2053 800 2053 1703 
Q 2053 2234 1993 2432 
Q 1934 2631 1819 2722 
Q 1738 2788 1606 2788 
z
" transform="scale(0.015625)"/>
      <path id="TimesNewRomanPS-BoldMT-72" d="M 1428 2922 
L 1428 2259 
Q 1719 2713 1937 2861 
Q 2156 3009 2359 3009 
Q 2534 3009 2639 2901 
Q 2744 2794 2744 2597 
Q 2744 2388 2642 2272 
Q 2541 2156 2397 2156 
Q 2231 2156 2109 2262 
Q 1988 2369 1966 2381 
Q 1934 2400 1894 2400 
Q 1803 2400 1722 2331 
Q 1594 2225 1528 2028 
Q 1428 1725 1428 1359 
L 1428 688 
L 1431 513 
Q 1431 334 1453 284 
Q 1491 200 1564 161 
Q 1638 122 1813 113 
L 1813 0 
L 234 0 
L 234 113 
Q 425 128 492 217 
Q 559 306 559 688 
L 559 2303 
Q 559 2553 534 2622 
Q 503 2709 443 2750 
Q 384 2791 234 2806 
L 234 2922 
L 1428 2922 
z
" transform="scale(0.015625)"/>
      <path id="TimesNewRomanPS-BoldMT-73" d="M 2063 3003 
L 2109 2006 
L 2003 2006 
Q 1813 2450 1608 2612 
Q 1403 2775 1200 2775 
Q 1072 2775 981 2689 
Q 891 2603 891 2491 
Q 891 2406 953 2328 
Q 1053 2200 1512 1889 
Q 1972 1578 2117 1361 
Q 2263 1144 2263 875 
Q 2263 631 2141 397 
Q 2019 163 1797 37 
Q 1575 -88 1306 -88 
Q 1097 -88 747 44 
Q 653 78 619 78 
Q 516 78 447 -78 
L 344 -78 
L 294 972 
L 400 972 
Q 541 559 786 353 
Q 1031 147 1250 147 
Q 1400 147 1495 239 
Q 1591 331 1591 463 
Q 1591 613 1497 722 
Q 1403 831 1078 1053 
Q 600 1384 459 1559 
Q 253 1816 253 2125 
Q 253 2463 486 2736 
Q 719 3009 1159 3009 
Q 1397 3009 1619 2894 
Q 1703 2847 1756 2847 
Q 1813 2847 1847 2870 
Q 1881 2894 1956 3003 
L 2063 3003 
z
" transform="scale(0.015625)"/>
      <path id="TimesNewRomanPS-BoldMT-74" d="M 1375 3991 
L 1375 2922 
L 2069 2922 
L 2069 2613 
L 1375 2613 
L 1375 809 
Q 1375 556 1398 482 
Q 1422 409 1481 364 
Q 1541 319 1591 319 
Q 1794 319 1975 628 
L 2069 559 
Q 1816 -41 1247 -41 
Q 969 -41 776 114 
Q 584 269 531 459 
Q 500 566 500 1034 
L 500 2613 
L 119 2613 
L 119 2722 
Q 513 3000 789 3306 
Q 1066 3613 1272 3991 
L 1375 3991 
z
" transform="scale(0.015625)"/>
     </defs>
     <use xlink:href="#TimesNewRomanPS-BoldMT-49"/>
     <use xlink:href="#TimesNewRomanPS-BoldMT-66" transform="translate(38.916016 0)"/>
     <use xlink:href="#TimesNewRomanPS-BoldMT-6f" transform="translate(72.216797 0)"/>
     <use xlink:href="#TimesNewRomanPS-BoldMT-72" transform="translate(122.216797 0)"/>
     <use xlink:href="#TimesNewRomanPS-BoldMT-65" transform="translate(164.851562 0)"/>
     <use xlink:href="#TimesNewRomanPS-BoldMT-73" transform="translate(209.236328 0)"/>
     <use xlink:href="#TimesNewRomanPS-BoldMT-74" transform="translate(248.152344 0)"/>
     <use xlink:href="#TimesNewRomanPS-BoldMT-20" transform="translate(281.453125 0)"/>
     <use xlink:href="#TimesNewRomanPS-BoldMT-28" transform="translate(306.453125 0)"/>
     <use xlink:href="#TimesNewRomanPS-BoldMT-41" transform="translate(339.753906 0)"/>
     <use xlink:href="#TimesNewRomanPS-BoldMT-76" transform="translate(404.595703 0)"/>
     <use xlink:href="#TimesNewRomanPS-BoldMT-67" transform="translate(454.595703 0)"/>
     <use xlink:href="#TimesNewRomanPS-BoldMT-20" transform="translate(504.595703 0)"/>
     <use xlink:href="#TimesNewRomanPS-BoldMT-52" transform="translate(529.595703 0)"/>
     <use xlink:href="#TimesNewRomanPS-BoldMT-61" transform="translate(601.8125 0)"/>
     <use xlink:href="#TimesNewRomanPS-BoldMT-6e" transform="translate(651.8125 0)"/>
     <use xlink:href="#TimesNewRomanPS-BoldMT-6b" transform="translate(707.427734 0)"/>
     <use xlink:href="#TimesNewRomanPS-BoldMT-3a" transform="translate(763.042969 0)"/>
     <use xlink:href="#TimesNewRomanPS-BoldMT-20" transform="translate(796.34375 0)"/>
     <use xlink:href="#TimesNewRomanPS-BoldMT-38" transform="translate(821.34375 0)"/>
     <use xlink:href="#TimesNewRomanPS-BoldMT-2e" transform="translate(871.34375 0)"/>
     <use xlink:href="#TimesNewRomanPS-BoldMT-33" transform="translate(896.34375 0)"/>
     <use xlink:href="#TimesNewRomanPS-BoldMT-38" transform="translate(946.34375 0)"/>
     <use xlink:href="#TimesNewRomanPS-BoldMT-29" transform="translate(996.34375 0)"/>
    </g>
   </g>
   <g id="text_29">
    <!-- NeuTral (Avg Rank: 8.00) -->
    <g style="fill: #f1948a" transform="translate(693.077625 323.422206) scale(0.12 -0.12)">
     <defs>
      <path id="TimesNewRomanPS-BoldMT-75" d="M 3038 2922 
L 3038 634 
Q 3038 300 3100 217 
Q 3163 134 3353 113 
L 3353 0 
L 2163 0 
L 2163 391 
Q 1953 141 1743 26 
Q 1534 -88 1275 -88 
Q 1028 -88 836 64 
Q 644 216 578 419 
Q 513 622 513 1128 
L 513 2288 
Q 513 2619 452 2700 
Q 391 2781 197 2806 
L 197 2922 
L 1388 2922 
L 1388 925 
Q 1388 613 1417 522 
Q 1447 431 1511 384 
Q 1575 338 1659 338 
Q 1772 338 1863 397 
Q 1988 478 2163 725 
L 2163 2288 
Q 2163 2619 2102 2700 
Q 2041 2781 1847 2806 
L 1847 2922 
L 3038 2922 
z
" transform="scale(0.015625)"/>
      <path id="TimesNewRomanPS-BoldMT-54" d="M 4038 4238 
L 4038 3091 
L 3925 3091 
Q 3825 3488 3703 3661 
Q 3581 3834 3369 3938 
Q 3250 3994 2953 3994 
L 2638 3994 
L 2638 725 
Q 2638 400 2673 319 
Q 2709 238 2814 177 
Q 2919 116 3100 116 
L 3241 116 
L 3241 0 
L 1022 0 
L 1022 116 
L 1163 116 
Q 1347 116 1459 181 
Q 1541 225 1588 331 
Q 1622 406 1622 725 
L 1622 3994 
L 1316 3994 
Q 888 3994 694 3813 
Q 422 3559 350 3091 
L 231 3091 
L 231 4238 
L 4038 4238 
z
" transform="scale(0.015625)"/>
      <path id="TimesNewRomanPS-BoldMT-6c" d="M 1359 4238 
L 1359 606 
Q 1359 297 1431 211 
Q 1503 125 1713 113 
L 1713 0 
L 134 0 
L 134 113 
Q 328 119 422 225 
Q 484 297 484 606 
L 484 3631 
Q 484 3938 412 4023 
Q 341 4109 134 4122 
L 134 4238 
L 1359 4238 
z
" transform="scale(0.015625)"/>
     </defs>
     <use xlink:href="#TimesNewRomanPS-BoldMT-4e"/>
     <use xlink:href="#TimesNewRomanPS-BoldMT-65" transform="translate(72.216797 0)"/>
     <use xlink:href="#TimesNewRomanPS-BoldMT-75" transform="translate(116.601562 0)"/>
     <use xlink:href="#TimesNewRomanPS-BoldMT-54" transform="translate(172.216797 0)"/>
     <use xlink:href="#TimesNewRomanPS-BoldMT-72" transform="translate(231.541016 0)"/>
     <use xlink:href="#TimesNewRomanPS-BoldMT-61" transform="translate(275.925781 0)"/>
     <use xlink:href="#TimesNewRomanPS-BoldMT-6c" transform="translate(325.925781 0)"/>
     <use xlink:href="#TimesNewRomanPS-BoldMT-20" transform="translate(353.708984 0)"/>
     <use xlink:href="#TimesNewRomanPS-BoldMT-28" transform="translate(378.708984 0)"/>
     <use xlink:href="#TimesNewRomanPS-BoldMT-41" transform="translate(412.009766 0)"/>
     <use xlink:href="#TimesNewRomanPS-BoldMT-76" transform="translate(476.851562 0)"/>
     <use xlink:href="#TimesNewRomanPS-BoldMT-67" transform="translate(526.851562 0)"/>
     <use xlink:href="#TimesNewRomanPS-BoldMT-20" transform="translate(576.851562 0)"/>
     <use xlink:href="#TimesNewRomanPS-BoldMT-52" transform="translate(601.851562 0)"/>
     <use xlink:href="#TimesNewRomanPS-BoldMT-61" transform="translate(674.068359 0)"/>
     <use xlink:href="#TimesNewRomanPS-BoldMT-6e" transform="translate(724.068359 0)"/>
     <use xlink:href="#TimesNewRomanPS-BoldMT-6b" transform="translate(779.683594 0)"/>
     <use xlink:href="#TimesNewRomanPS-BoldMT-3a" transform="translate(835.298828 0)"/>
     <use xlink:href="#TimesNewRomanPS-BoldMT-20" transform="translate(868.599609 0)"/>
     <use xlink:href="#TimesNewRomanPS-BoldMT-38" transform="translate(893.599609 0)"/>
     <use xlink:href="#TimesNewRomanPS-BoldMT-2e" transform="translate(943.599609 0)"/>
     <use xlink:href="#TimesNewRomanPS-BoldMT-30" transform="translate(968.599609 0)"/>
     <use xlink:href="#TimesNewRomanPS-BoldMT-30" transform="translate(1018.599609 0)"/>
     <use xlink:href="#TimesNewRomanPS-BoldMT-29" transform="translate(1068.599609 0)"/>
    </g>
   </g>
   <g id="text_30">
    <!-- DTE (Avg Rank: 6.13) -->
    <g style="fill: #7fb3d3" transform="translate(693.077625 300.158773) scale(0.12 -0.12)">
     <use xlink:href="#TimesNewRomanPS-BoldMT-44"/>
     <use xlink:href="#TimesNewRomanPS-BoldMT-54" transform="translate(72.216797 0)"/>
     <use xlink:href="#TimesNewRomanPS-BoldMT-45" transform="translate(138.916016 0)"/>
     <use xlink:href="#TimesNewRomanPS-BoldMT-20" transform="translate(205.615234 0)"/>
     <use xlink:href="#TimesNewRomanPS-BoldMT-28" transform="translate(230.615234 0)"/>
     <use xlink:href="#TimesNewRomanPS-BoldMT-41" transform="translate(263.916016 0)"/>
     <use xlink:href="#TimesNewRomanPS-BoldMT-76" transform="translate(328.757812 0)"/>
     <use xlink:href="#TimesNewRomanPS-BoldMT-67" transform="translate(378.757812 0)"/>
     <use xlink:href="#TimesNewRomanPS-BoldMT-20" transform="translate(428.757812 0)"/>
     <use xlink:href="#TimesNewRomanPS-BoldMT-52" transform="translate(453.757812 0)"/>
     <use xlink:href="#TimesNewRomanPS-BoldMT-61" transform="translate(525.974609 0)"/>
     <use xlink:href="#TimesNewRomanPS-BoldMT-6e" transform="translate(575.974609 0)"/>
     <use xlink:href="#TimesNewRomanPS-BoldMT-6b" transform="translate(631.589844 0)"/>
     <use xlink:href="#TimesNewRomanPS-BoldMT-3a" transform="translate(687.205078 0)"/>
     <use xlink:href="#TimesNewRomanPS-BoldMT-20" transform="translate(720.505859 0)"/>
     <use xlink:href="#TimesNewRomanPS-BoldMT-36" transform="translate(745.505859 0)"/>
     <use xlink:href="#TimesNewRomanPS-BoldMT-2e" transform="translate(795.505859 0)"/>
     <use xlink:href="#TimesNewRomanPS-BoldMT-31" transform="translate(820.505859 0)"/>
     <use xlink:href="#TimesNewRomanPS-BoldMT-33" transform="translate(870.505859 0)"/>
     <use xlink:href="#TimesNewRomanPS-BoldMT-29" transform="translate(920.505859 0)"/>
    </g>
   </g>
   <g id="text_31">
    <!-- ICL (Avg Rank: 6.06) -->
    <g style="fill: #d7bde2" transform="translate(693.077625 276.89534) scale(0.12 -0.12)">
     <use xlink:href="#TimesNewRomanPS-BoldMT-49"/>
     <use xlink:href="#TimesNewRomanPS-BoldMT-43" transform="translate(38.916016 0)"/>
     <use xlink:href="#TimesNewRomanPS-BoldMT-4c" transform="translate(111.132812 0)"/>
     <use xlink:href="#TimesNewRomanPS-BoldMT-20" transform="translate(172.332031 0)"/>
     <use xlink:href="#TimesNewRomanPS-BoldMT-28" transform="translate(197.332031 0)"/>
     <use xlink:href="#TimesNewRomanPS-BoldMT-41" transform="translate(230.632812 0)"/>
     <use xlink:href="#TimesNewRomanPS-BoldMT-76" transform="translate(295.474609 0)"/>
     <use xlink:href="#TimesNewRomanPS-BoldMT-67" transform="translate(345.474609 0)"/>
     <use xlink:href="#TimesNewRomanPS-BoldMT-20" transform="translate(395.474609 0)"/>
     <use xlink:href="#TimesNewRomanPS-BoldMT-52" transform="translate(420.474609 0)"/>
     <use xlink:href="#TimesNewRomanPS-BoldMT-61" transform="translate(492.691406 0)"/>
     <use xlink:href="#TimesNewRomanPS-BoldMT-6e" transform="translate(542.691406 0)"/>
     <use xlink:href="#TimesNewRomanPS-BoldMT-6b" transform="translate(598.306641 0)"/>
     <use xlink:href="#TimesNewRomanPS-BoldMT-3a" transform="translate(653.921875 0)"/>
     <use xlink:href="#TimesNewRomanPS-BoldMT-20" transform="translate(687.222656 0)"/>
     <use xlink:href="#TimesNewRomanPS-BoldMT-36" transform="translate(712.222656 0)"/>
     <use xlink:href="#TimesNewRomanPS-BoldMT-2e" transform="translate(762.222656 0)"/>
     <use xlink:href="#TimesNewRomanPS-BoldMT-30" transform="translate(787.222656 0)"/>
     <use xlink:href="#TimesNewRomanPS-BoldMT-36" transform="translate(837.222656 0)"/>
     <use xlink:href="#TimesNewRomanPS-BoldMT-29" transform="translate(887.222656 0)"/>
    </g>
   </g>
   <g id="text_32">
    <!-- KNN (Avg Rank: 5.85) -->
    <g style="fill: #9370db" transform="translate(693.077625 253.631908) scale(0.12 -0.12)">
     <defs>
      <path id="TimesNewRomanPS-BoldMT-4b" d="M 2666 2616 
L 4156 750 
Q 4472 356 4700 216 
Q 4866 116 5050 116 
L 5050 0 
L 2844 0 
L 2844 116 
Q 3053 134 3114 181 
Q 3175 228 3175 297 
Q 3175 428 2888 791 
L 1916 2013 
L 1759 1881 
L 1759 725 
Q 1759 394 1796 312 
Q 1834 231 1940 173 
Q 2047 116 2281 116 
L 2281 0 
L 144 0 
L 144 116 
L 284 116 
Q 469 116 581 181 
Q 663 225 706 331 
Q 741 406 741 725 
L 741 3513 
Q 741 3838 706 3919 
Q 672 4000 567 4061 
Q 463 4122 284 4122 
L 144 4122 
L 144 4238 
L 2253 4238 
L 2253 4122 
Q 2038 4122 1925 4059 
Q 1844 4016 1797 3913 
Q 1759 3834 1759 3513 
L 1759 2194 
L 3331 3466 
Q 3659 3731 3659 3891 
Q 3659 4009 3525 4078 
Q 3456 4113 3184 4122 
L 3184 4238 
L 4838 4238 
L 4838 4122 
Q 4616 4106 4489 4042 
Q 4363 3978 3906 3609 
L 2666 2616 
z
" transform="scale(0.015625)"/>
     </defs>
     <use xlink:href="#TimesNewRomanPS-BoldMT-4b"/>
     <use xlink:href="#TimesNewRomanPS-BoldMT-4e" transform="translate(77.783203 0)"/>
     <use xlink:href="#TimesNewRomanPS-BoldMT-4e" transform="translate(150 0)"/>
     <use xlink:href="#TimesNewRomanPS-BoldMT-20" transform="translate(222.216797 0)"/>
     <use xlink:href="#TimesNewRomanPS-BoldMT-28" transform="translate(247.216797 0)"/>
     <use xlink:href="#TimesNewRomanPS-BoldMT-41" transform="translate(280.517578 0)"/>
     <use xlink:href="#TimesNewRomanPS-BoldMT-76" transform="translate(345.359375 0)"/>
     <use xlink:href="#TimesNewRomanPS-BoldMT-67" transform="translate(395.359375 0)"/>
     <use xlink:href="#TimesNewRomanPS-BoldMT-20" transform="translate(445.359375 0)"/>
     <use xlink:href="#TimesNewRomanPS-BoldMT-52" transform="translate(470.359375 0)"/>
     <use xlink:href="#TimesNewRomanPS-BoldMT-61" transform="translate(542.576172 0)"/>
     <use xlink:href="#TimesNewRomanPS-BoldMT-6e" transform="translate(592.576172 0)"/>
     <use xlink:href="#TimesNewRomanPS-BoldMT-6b" transform="translate(648.191406 0)"/>
     <use xlink:href="#TimesNewRomanPS-BoldMT-3a" transform="translate(703.806641 0)"/>
     <use xlink:href="#TimesNewRomanPS-BoldMT-20" transform="translate(737.107422 0)"/>
     <use xlink:href="#TimesNewRomanPS-BoldMT-35" transform="translate(762.107422 0)"/>
     <use xlink:href="#TimesNewRomanPS-BoldMT-2e" transform="translate(812.107422 0)"/>
     <use xlink:href="#TimesNewRomanPS-BoldMT-38" transform="translate(837.107422 0)"/>
     <use xlink:href="#TimesNewRomanPS-BoldMT-35" transform="translate(887.107422 0)"/>
     <use xlink:href="#TimesNewRomanPS-BoldMT-29" transform="translate(937.107422 0)"/>
    </g>
   </g>
   <g id="text_33">
    <!-- AnoLLM (Avg Rank: 5.00) -->
    <g style="fill: #ffc107" transform="translate(693.077625 230.368475) scale(0.12 -0.12)">
     <use xlink:href="#TimesNewRomanPS-BoldMT-41"/>
     <use xlink:href="#TimesNewRomanPS-BoldMT-6e" transform="translate(72.216797 0)"/>
     <use xlink:href="#TimesNewRomanPS-BoldMT-6f" transform="translate(127.832031 0)"/>
     <use xlink:href="#TimesNewRomanPS-BoldMT-4c" transform="translate(177.832031 0)"/>
     <use xlink:href="#TimesNewRomanPS-BoldMT-4c" transform="translate(244.53125 0)"/>
     <use xlink:href="#TimesNewRomanPS-BoldMT-4d" transform="translate(311.230469 0)"/>
     <use xlink:href="#TimesNewRomanPS-BoldMT-20" transform="translate(405.615234 0)"/>
     <use xlink:href="#TimesNewRomanPS-BoldMT-28" transform="translate(430.615234 0)"/>
     <use xlink:href="#TimesNewRomanPS-BoldMT-41" transform="translate(463.916016 0)"/>
     <use xlink:href="#TimesNewRomanPS-BoldMT-76" transform="translate(528.757812 0)"/>
     <use xlink:href="#TimesNewRomanPS-BoldMT-67" transform="translate(578.757812 0)"/>
     <use xlink:href="#TimesNewRomanPS-BoldMT-20" transform="translate(628.757812 0)"/>
     <use xlink:href="#TimesNewRomanPS-BoldMT-52" transform="translate(653.757812 0)"/>
     <use xlink:href="#TimesNewRomanPS-BoldMT-61" transform="translate(725.974609 0)"/>
     <use xlink:href="#TimesNewRomanPS-BoldMT-6e" transform="translate(775.974609 0)"/>
     <use xlink:href="#TimesNewRomanPS-BoldMT-6b" transform="translate(831.589844 0)"/>
     <use xlink:href="#TimesNewRomanPS-BoldMT-3a" transform="translate(887.205078 0)"/>
     <use xlink:href="#TimesNewRomanPS-BoldMT-20" transform="translate(920.505859 0)"/>
     <use xlink:href="#TimesNewRomanPS-BoldMT-35" transform="translate(945.505859 0)"/>
     <use xlink:href="#TimesNewRomanPS-BoldMT-2e" transform="translate(995.505859 0)"/>
     <use xlink:href="#TimesNewRomanPS-BoldMT-30" transform="translate(1020.505859 0)"/>
     <use xlink:href="#TimesNewRomanPS-BoldMT-30" transform="translate(1070.505859 0)"/>
     <use xlink:href="#TimesNewRomanPS-BoldMT-29" transform="translate(1120.505859 0)"/>
    </g>
   </g>
   <g id="text_34">
    <!-- AEKNN (Avg Rank: 4.27) -->
    <g style="fill: #ffa500" transform="translate(693.077625 207.105042) scale(0.12 -0.12)">
     <use xlink:href="#TimesNewRomanPS-BoldMT-41"/>
     <use xlink:href="#TimesNewRomanPS-BoldMT-45" transform="translate(72.216797 0)"/>
     <use xlink:href="#TimesNewRomanPS-BoldMT-4b" transform="translate(138.916016 0)"/>
     <use xlink:href="#TimesNewRomanPS-BoldMT-4e" transform="translate(216.699219 0)"/>
     <use xlink:href="#TimesNewRomanPS-BoldMT-4e" transform="translate(288.916016 0)"/>
     <use xlink:href="#TimesNewRomanPS-BoldMT-20" transform="translate(361.132812 0)"/>
     <use xlink:href="#TimesNewRomanPS-BoldMT-28" transform="translate(386.132812 0)"/>
     <use xlink:href="#TimesNewRomanPS-BoldMT-41" transform="translate(419.433594 0)"/>
     <use xlink:href="#TimesNewRomanPS-BoldMT-76" transform="translate(484.275391 0)"/>
     <use xlink:href="#TimesNewRomanPS-BoldMT-67" transform="translate(534.275391 0)"/>
     <use xlink:href="#TimesNewRomanPS-BoldMT-20" transform="translate(584.275391 0)"/>
     <use xlink:href="#TimesNewRomanPS-BoldMT-52" transform="translate(609.275391 0)"/>
     <use xlink:href="#TimesNewRomanPS-BoldMT-61" transform="translate(681.492188 0)"/>
     <use xlink:href="#TimesNewRomanPS-BoldMT-6e" transform="translate(731.492188 0)"/>
     <use xlink:href="#TimesNewRomanPS-BoldMT-6b" transform="translate(787.107422 0)"/>
     <use xlink:href="#TimesNewRomanPS-BoldMT-3a" transform="translate(842.722656 0)"/>
     <use xlink:href="#TimesNewRomanPS-BoldMT-20" transform="translate(876.023438 0)"/>
     <use xlink:href="#TimesNewRomanPS-BoldMT-34" transform="translate(901.023438 0)"/>
     <use xlink:href="#TimesNewRomanPS-BoldMT-2e" transform="translate(951.023438 0)"/>
     <use xlink:href="#TimesNewRomanPS-BoldMT-32" transform="translate(976.023438 0)"/>
     <use xlink:href="#TimesNewRomanPS-BoldMT-37" transform="translate(1026.023438 0)"/>
     <use xlink:href="#TimesNewRomanPS-BoldMT-29" transform="translate(1076.023438 0)"/>
    </g>
   </g>
   <g id="text_35">
    <!-- CD -->
    <g transform="translate(240.187903 44.741558) scale(0.12 -0.12)">
     <defs>
      <path id="TimesNewRomanPSMT-43" d="M 3853 4334 
L 3950 2894 
L 3853 2894 
Q 3659 3541 3300 3825 
Q 2941 4109 2438 4109 
Q 2016 4109 1675 3895 
Q 1334 3681 1139 3212 
Q 944 2744 944 2047 
Q 944 1472 1128 1050 
Q 1313 628 1683 403 
Q 2053 178 2528 178 
Q 2941 178 3256 354 
Q 3572 531 3950 1056 
L 4047 994 
Q 3728 428 3303 165 
Q 2878 -97 2294 -97 
Q 1241 -97 663 684 
Q 231 1266 231 2053 
Q 231 2688 515 3219 
Q 800 3750 1298 4042 
Q 1797 4334 2388 4334 
Q 2847 4334 3294 4109 
Q 3425 4041 3481 4041 
Q 3566 4041 3628 4100 
Q 3709 4184 3744 4334 
L 3853 4334 
z
" transform="scale(0.015625)"/>
      <path id="TimesNewRomanPSMT-44" d="M 109 0 
L 109 116 
L 269 116 
Q 538 116 650 288 
Q 719 391 719 750 
L 719 3488 
Q 719 3884 631 3984 
Q 509 4122 269 4122 
L 109 4122 
L 109 4238 
L 1834 4238 
Q 2784 4238 3279 4022 
Q 3775 3806 4076 3303 
Q 4378 2800 4378 2141 
Q 4378 1256 3841 663 
Q 3238 0 2003 0 
L 109 0 
z
M 1319 306 
Q 1716 219 1984 219 
Q 2709 219 3187 728 
Q 3666 1238 3666 2109 
Q 3666 2988 3187 3494 
Q 2709 4000 1959 4000 
Q 1678 4000 1319 3909 
L 1319 306 
z
" transform="scale(0.015625)"/>
     </defs>
     <use xlink:href="#TimesNewRomanPSMT-43"/>
     <use xlink:href="#TimesNewRomanPSMT-44" transform="translate(66.699219 0)"/>
    </g>
   </g>
   <g id="text_36">
    <!-- Critical Difference Diagram of Average AUC-ROC Rankings -->
    <g transform="translate(219.684125 18.045) scale(0.16 -0.16)">
     <defs>
      <path id="TimesNewRomanPS-BoldMT-69" d="M 919 4338 
Q 1122 4338 1262 4195 
Q 1403 4053 1403 3853 
Q 1403 3653 1261 3512 
Q 1119 3372 919 3372 
Q 719 3372 578 3512 
Q 438 3653 438 3853 
Q 438 4053 578 4195 
Q 719 4338 919 4338 
z
M 1356 2922 
L 1356 606 
Q 1356 297 1428 211 
Q 1500 125 1709 113 
L 1709 0 
L 131 0 
L 131 113 
Q 325 119 419 225 
Q 481 297 481 606 
L 481 2313 
Q 481 2622 409 2708 
Q 338 2794 131 2806 
L 131 2922 
L 1356 2922 
z
" transform="scale(0.015625)"/>
      <path id="TimesNewRomanPS-BoldMT-63" d="M 2600 753 
L 2697 678 
Q 2491 291 2183 101 
Q 1875 -88 1528 -88 
Q 944 -88 594 353 
Q 244 794 244 1413 
Q 244 2009 563 2463 
Q 947 3009 1622 3009 
Q 2075 3009 2342 2781 
Q 2609 2553 2609 2272 
Q 2609 2094 2501 1987 
Q 2394 1881 2219 1881 
Q 2034 1881 1914 2003 
Q 1794 2125 1766 2438 
Q 1747 2634 1675 2713 
Q 1603 2791 1506 2791 
Q 1356 2791 1250 2631 
Q 1088 2391 1088 1894 
Q 1088 1481 1219 1104 
Q 1350 728 1578 544 
Q 1750 409 1984 409 
Q 2138 409 2275 481 
Q 2413 553 2600 753 
z
" transform="scale(0.015625)"/>
      <path id="TimesNewRomanPS-BoldMT-6d" d="M 1428 2922 
L 1428 2538 
Q 1669 2800 1873 2904 
Q 2078 3009 2322 3009 
Q 2603 3009 2793 2878 
Q 2984 2747 3088 2478 
Q 3338 2759 3567 2884 
Q 3797 3009 4047 3009 
Q 4350 3009 4529 2870 
Q 4709 2731 4779 2517 
Q 4850 2303 4850 1834 
L 4850 638 
Q 4850 300 4911 219 
Q 4972 138 5166 113 
L 5166 0 
L 3656 0 
L 3656 113 
Q 3834 128 3919 250 
Q 3975 334 3975 638 
L 3975 1894 
Q 3975 2284 3944 2390 
Q 3913 2497 3845 2548 
Q 3778 2600 3688 2600 
Q 3553 2600 3415 2501 
Q 3278 2403 3138 2206 
L 3138 638 
Q 3138 322 3191 241 
Q 3263 125 3466 113 
L 3466 0 
L 1953 0 
L 1953 113 
Q 2075 119 2145 173 
Q 2216 228 2239 304 
Q 2263 381 2263 638 
L 2263 1894 
Q 2263 2291 2231 2391 
Q 2200 2491 2126 2547 
Q 2053 2603 1969 2603 
Q 1844 2603 1741 2538 
Q 1594 2441 1428 2206 
L 1428 638 
Q 1428 328 1489 229 
Q 1550 131 1744 113 
L 1744 0 
L 238 0 
L 238 113 
Q 422 131 500 231 
Q 553 300 553 638 
L 553 2288 
Q 553 2619 492 2700 
Q 431 2781 238 2806 
L 238 2922 
L 1428 2922 
z
" transform="scale(0.015625)"/>
      <path id="TimesNewRomanPS-BoldMT-55" d="M 150 4238 
L 2338 4238 
L 2338 4122 
L 2228 4122 
Q 1981 4122 1889 4070 
Q 1797 4019 1758 3928 
Q 1719 3838 1719 3475 
L 1719 1400 
Q 1719 831 1805 647 
Q 1891 463 2087 341 
Q 2284 219 2584 219 
Q 2928 219 3170 373 
Q 3413 528 3533 800 
Q 3653 1072 3653 1747 
L 3653 3475 
Q 3653 3759 3593 3881 
Q 3534 4003 3444 4050 
Q 3303 4122 3047 4122 
L 3047 4238 
L 4513 4238 
L 4513 4122 
L 4425 4122 
Q 4247 4122 4128 4050 
Q 4009 3978 3956 3834 
Q 3916 3734 3916 3475 
L 3916 1866 
Q 3916 1119 3817 787 
Q 3719 456 3337 178 
Q 2956 -100 2297 -100 
Q 1747 -100 1447 47 
Q 1038 247 869 559 
Q 700 872 700 1400 
L 700 3475 
Q 700 3841 659 3930 
Q 619 4019 519 4072 
Q 419 4125 150 4122 
L 150 4238 
z
" transform="scale(0.015625)"/>
     </defs>
     <use xlink:href="#TimesNewRomanPS-BoldMT-43"/>
     <use xlink:href="#TimesNewRomanPS-BoldMT-72" transform="translate(72.216797 0)"/>
     <use xlink:href="#TimesNewRomanPS-BoldMT-69" transform="translate(116.601562 0)"/>
     <use xlink:href="#TimesNewRomanPS-BoldMT-74" transform="translate(144.384766 0)"/>
     <use xlink:href="#TimesNewRomanPS-BoldMT-69" transform="translate(177.685547 0)"/>
     <use xlink:href="#TimesNewRomanPS-BoldMT-63" transform="translate(205.46875 0)"/>
     <use xlink:href="#TimesNewRomanPS-BoldMT-61" transform="translate(249.853516 0)"/>
     <use xlink:href="#TimesNewRomanPS-BoldMT-6c" transform="translate(299.853516 0)"/>
     <use xlink:href="#TimesNewRomanPS-BoldMT-20" transform="translate(327.636719 0)"/>
     <use xlink:href="#TimesNewRomanPS-BoldMT-44" transform="translate(352.636719 0)"/>
     <use xlink:href="#TimesNewRomanPS-BoldMT-69" transform="translate(424.853516 0)"/>
     <use xlink:href="#TimesNewRomanPS-BoldMT-66" transform="translate(452.636719 0)"/>
     <use xlink:href="#TimesNewRomanPS-BoldMT-66" transform="translate(485.9375 0)"/>
     <use xlink:href="#TimesNewRomanPS-BoldMT-65" transform="translate(519.238281 0)"/>
     <use xlink:href="#TimesNewRomanPS-BoldMT-72" transform="translate(563.623047 0)"/>
     <use xlink:href="#TimesNewRomanPS-BoldMT-65" transform="translate(606.257812 0)"/>
     <use xlink:href="#TimesNewRomanPS-BoldMT-6e" transform="translate(650.642578 0)"/>
     <use xlink:href="#TimesNewRomanPS-BoldMT-63" transform="translate(706.257812 0)"/>
     <use xlink:href="#TimesNewRomanPS-BoldMT-65" transform="translate(750.642578 0)"/>
     <use xlink:href="#TimesNewRomanPS-BoldMT-20" transform="translate(795.027344 0)"/>
     <use xlink:href="#TimesNewRomanPS-BoldMT-44" transform="translate(820.027344 0)"/>
     <use xlink:href="#TimesNewRomanPS-BoldMT-69" transform="translate(892.244141 0)"/>
     <use xlink:href="#TimesNewRomanPS-BoldMT-61" transform="translate(920.027344 0)"/>
     <use xlink:href="#TimesNewRomanPS-BoldMT-67" transform="translate(970.027344 0)"/>
     <use xlink:href="#TimesNewRomanPS-BoldMT-72" transform="translate(1020.027344 0)"/>
     <use xlink:href="#TimesNewRomanPS-BoldMT-61" transform="translate(1064.412109 0)"/>
     <use xlink:href="#TimesNewRomanPS-BoldMT-6d" transform="translate(1114.412109 0)"/>
     <use xlink:href="#TimesNewRomanPS-BoldMT-20" transform="translate(1197.712891 0)"/>
     <use xlink:href="#TimesNewRomanPS-BoldMT-6f" transform="translate(1222.712891 0)"/>
     <use xlink:href="#TimesNewRomanPS-BoldMT-66" transform="translate(1272.712891 0)"/>
     <use xlink:href="#TimesNewRomanPS-BoldMT-20" transform="translate(1306.013672 0)"/>
     <use xlink:href="#TimesNewRomanPS-BoldMT-41" transform="translate(1325.513672 0)"/>
     <use xlink:href="#TimesNewRomanPS-BoldMT-76" transform="translate(1390.355469 0)"/>
     <use xlink:href="#TimesNewRomanPS-BoldMT-65" transform="translate(1440.355469 0)"/>
     <use xlink:href="#TimesNewRomanPS-BoldMT-72" transform="translate(1484.740234 0)"/>
     <use xlink:href="#TimesNewRomanPS-BoldMT-61" transform="translate(1529.125 0)"/>
     <use xlink:href="#TimesNewRomanPS-BoldMT-67" transform="translate(1579.125 0)"/>
     <use xlink:href="#TimesNewRomanPS-BoldMT-65" transform="translate(1629.125 0)"/>
     <use xlink:href="#TimesNewRomanPS-BoldMT-20" transform="translate(1673.509766 0)"/>
     <use xlink:href="#TimesNewRomanPS-BoldMT-41" transform="translate(1693.009766 0)"/>
     <use xlink:href="#TimesNewRomanPS-BoldMT-55" transform="translate(1765.226562 0)"/>
     <use xlink:href="#TimesNewRomanPS-BoldMT-43" transform="translate(1837.443359 0)"/>
     <use xlink:href="#TimesNewRomanPS-BoldMT-2d" transform="translate(1909.660156 0)"/>
     <use xlink:href="#TimesNewRomanPS-BoldMT-52" transform="translate(1942.960938 0)"/>
     <use xlink:href="#TimesNewRomanPS-BoldMT-4f" transform="translate(2015.177734 0)"/>
     <use xlink:href="#TimesNewRomanPS-BoldMT-43" transform="translate(2092.960938 0)"/>
     <use xlink:href="#TimesNewRomanPS-BoldMT-20" transform="translate(2165.177734 0)"/>
     <use xlink:href="#TimesNewRomanPS-BoldMT-52" transform="translate(2190.177734 0)"/>
     <use xlink:href="#TimesNewRomanPS-BoldMT-61" transform="translate(2262.394531 0)"/>
     <use xlink:href="#TimesNewRomanPS-BoldMT-6e" transform="translate(2312.394531 0)"/>
     <use xlink:href="#TimesNewRomanPS-BoldMT-6b" transform="translate(2368.009766 0)"/>
     <use xlink:href="#TimesNewRomanPS-BoldMT-69" transform="translate(2423.625 0)"/>
     <use xlink:href="#TimesNewRomanPS-BoldMT-6e" transform="translate(2451.408203 0)"/>
     <use xlink:href="#TimesNewRomanPS-BoldMT-67" transform="translate(2507.023438 0)"/>
     <use xlink:href="#TimesNewRomanPS-BoldMT-73" transform="translate(2557.023438 0)"/>
    </g>
   </g>
  </g>
 </g>
 <defs>
  <clipPath id="p67ab16972b">
   <rect x="65.021625" y="24.045" width="724.68" height="389.6625"/>
  </clipPath>
 </defs>
</svg>
